<svg xmlns="http://www.w3.org/2000/svg" xmlns:xlink="http://www.w3.org/1999/xlink" width="500" zoomAndPan="magnify" viewBox="0 0 375 374.999991" height="500" preserveAspectRatio="xMidYMid meet" version="1.0"><defs><clipPath id="c26a660977"><path d="M 0 0 L 375 0 L 375 374.25 L 0 374.25 Z M 0 0 " clip-rule="nonzero"/></clipPath><clipPath id="ac2bbfa219"><path d="M 281.105469 129.085938 C 281.121094 128.621094 281.125 128.15625 281.125 127.691406 C 281.125 100.316406 258.851562 78.042969 231.472656 78.042969 C 222.546875 78.042969 213.960938 80.382812 206.367188 84.851562 C 195.019531 75.761719 180.984375 70.808594 166.328125 70.808594 C 133.066406 70.808594 105.640625 96.253906 102.5 128.703125 L 93.953125 128.703125 C 66.570312 128.703125 44.296875 150.972656 44.296875 178.347656 C 44.296875 205.726562 66.570312 227.996094 93.953125 227.996094 L 106.574219 227.996094 L 106.574219 229.46875 C 106.574219 236.667969 112.035156 242.609375 119.03125 243.386719 L 119.03125 249.796875 C 112.035156 250.574219 106.574219 256.515625 106.574219 263.714844 L 106.574219 285.511719 C 106.574219 293.238281 112.863281 299.523438 120.589844 299.523438 L 254.488281 299.523438 C 262.214844 299.523438 268.503906 293.238281 268.503906 285.511719 L 268.503906 263.714844 C 268.503906 256.515625 263.042969 250.574219 256.046875 249.796875 L 256.046875 243.386719 C 263.042969 242.609375 268.503906 236.667969 268.503906 229.46875 L 268.503906 227.996094 L 274.898438 227.996094 C 302.277344 227.996094 324.554688 205.722656 324.554688 178.347656 C 324.554688 153.074219 305.566406 132.152344 281.105469 129.085938 Z M 131.488281 193.664062 L 131.488281 187.4375 L 243.589844 187.4375 L 243.589844 193.664062 Z M 254.488281 174.980469 L 156.398438 174.980469 L 156.398438 150.074219 L 254.488281 150.074219 C 255.347656 150.074219 256.046875 150.773438 256.046875 151.632812 L 256.046875 173.425781 C 256.046875 174.285156 255.347656 174.980469 254.488281 174.980469 Z M 143.941406 174.980469 L 120.589844 174.980469 C 119.730469 174.980469 119.03125 174.285156 119.03125 173.425781 L 119.03125 151.632812 C 119.03125 150.773438 119.730469 150.074219 120.589844 150.074219 L 143.941406 150.074219 Z M 120.589844 206.117188 L 143.941406 206.117188 L 143.941406 231.023438 L 120.589844 231.023438 C 119.730469 231.023438 119.03125 230.328125 119.03125 229.46875 L 119.03125 207.675781 C 119.03125 206.816406 119.730469 206.117188 120.589844 206.117188 Z M 131.488281 249.707031 L 131.488281 243.480469 L 243.589844 243.480469 L 243.589844 249.707031 Z M 119.03125 285.511719 L 119.03125 263.714844 C 119.03125 262.859375 119.730469 262.160156 120.589844 262.160156 L 143.941406 262.160156 L 143.941406 287.066406 L 120.589844 287.066406 C 119.730469 287.066406 119.03125 286.371094 119.03125 285.511719 Z M 256.046875 285.511719 C 256.046875 286.371094 255.347656 287.066406 254.488281 287.066406 L 156.398438 287.066406 L 156.398438 262.160156 L 254.488281 262.160156 C 255.347656 262.160156 256.046875 262.859375 256.046875 263.714844 Z M 256.046875 229.46875 C 256.046875 230.328125 255.347656 231.023438 254.488281 231.023438 L 156.398438 231.023438 L 156.398438 206.117188 L 254.488281 206.117188 C 255.347656 206.117188 256.046875 206.816406 256.046875 207.675781 Z M 274.898438 215.542969 L 268.503906 215.542969 L 268.503906 207.675781 C 268.503906 200.476562 263.042969 194.53125 256.046875 193.753906 L 256.046875 187.34375 C 263.042969 186.566406 268.503906 180.625 268.503906 173.425781 L 268.503906 151.632812 C 268.503906 143.90625 262.214844 137.621094 254.488281 137.621094 L 120.589844 137.621094 C 112.863281 137.621094 106.574219 143.90625 106.574219 151.632812 L 106.574219 173.425781 C 106.574219 180.625 112.035156 186.566406 119.03125 187.34375 L 119.03125 193.753906 C 112.035156 194.53125 106.574219 200.476562 106.574219 207.675781 L 106.574219 215.542969 L 93.953125 215.542969 C 73.4375 215.542969 56.753906 198.855469 56.753906 178.347656 C 56.753906 157.839844 73.441406 141.15625 93.953125 141.15625 L 108.425781 141.15625 C 111.867188 141.15625 114.65625 138.367188 114.65625 134.925781 C 114.65625 106.4375 137.835938 83.261719 166.332031 83.261719 C 179.46875 83.261719 191.992188 88.207031 201.601562 97.1875 C 203.785156 99.230469 207.117188 99.429688 209.53125 97.660156 C 215.9375 92.976562 223.523438 90.496094 231.472656 90.496094 C 251.984375 90.496094 268.671875 107.183594 268.671875 127.691406 C 268.671875 129.734375 268.496094 131.820312 268.144531 133.898438 C 267.84375 135.703125 268.351562 137.550781 269.53125 138.949219 C 270.71875 140.347656 272.457031 141.15625 274.289062 141.15625 L 274.898438 141.15625 C 295.410156 141.15625 312.097656 157.839844 312.097656 178.347656 C 312.097656 198.855469 295.410156 215.542969 274.898438 215.542969 Z M 164.449219 29.9375 C 162.019531 27.507812 162.019531 23.5625 164.449219 21.132812 L 183.136719 2.453125 C 185.566406 0.0195312 189.511719 0.0195312 191.941406 2.453125 L 210.625 21.132812 C 213.058594 23.5625 213.058594 27.507812 210.625 29.9375 C 209.410156 31.152344 207.816406 31.761719 206.222656 31.761719 C 204.628906 31.761719 203.035156 31.152344 201.820312 29.9375 L 193.765625 21.886719 L 193.765625 62.898438 C 193.765625 66.335938 190.976562 69.125 187.539062 69.125 C 184.097656 69.125 181.3125 66.335938 181.3125 62.898438 L 181.3125 21.886719 L 173.257812 29.9375 C 170.828125 32.371094 166.882812 32.371094 164.449219 29.9375 Z M 0.914062 67.621094 C 0.0234375 64.300781 1.996094 60.886719 5.316406 59.996094 L 30.839844 53.15625 C 34.160156 52.269531 37.574219 54.238281 38.464844 57.558594 C 39.355469 60.882812 37.382812 64.296875 34.0625 65.1875 L 23.0625 68.132812 L 58.582031 88.636719 C 61.5625 90.359375 62.582031 94.167969 60.863281 97.144531 C 59.710938 99.140625 57.617188 100.257812 55.464844 100.257812 C 54.40625 100.257812 53.335938 99.988281 52.355469 99.421875 L 16.835938 78.917969 L 19.78125 89.917969 C 20.671875 93.238281 18.699219 96.652344 15.378906 97.542969 C 14.839844 97.6875 14.296875 97.757812 13.765625 97.757812 C 11.015625 97.757812 8.496094 95.921875 7.75 93.140625 Z M 60.863281 277.726562 C 62.582031 280.707031 61.5625 284.515625 58.582031 286.234375 L 23.0625 306.738281 L 34.0625 309.683594 C 37.386719 310.574219 39.355469 313.988281 38.464844 317.3125 C 37.71875 320.09375 35.203125 321.929688 32.453125 321.929688 C 31.917969 321.929688 31.378906 321.859375 30.839844 321.714844 L 5.316406 314.875 C 1.992188 313.984375 0.0234375 310.574219 0.914062 307.25 L 7.75 281.730469 C 8.640625 278.410156 12.058594 276.4375 15.378906 277.328125 C 18.699219 278.21875 20.671875 281.632812 19.78125 284.953125 L 16.835938 295.953125 L 52.355469 275.449219 C 55.335938 273.726562 59.144531 274.75 60.863281 277.726562 Z M 210.625 344.933594 C 213.058594 347.367188 213.058594 351.308594 210.625 353.738281 L 191.941406 372.421875 C 190.726562 373.636719 189.132812 374.246094 187.539062 374.246094 C 185.945312 374.246094 184.351562 373.636719 183.136719 372.421875 L 164.449219 353.742188 C 162.019531 351.308594 162.019531 347.367188 164.449219 344.933594 C 166.882812 342.503906 170.828125 342.503906 173.257812 344.933594 L 181.3125 352.984375 L 181.3125 311.976562 C 181.3125 308.535156 184.097656 305.75 187.539062 305.75 C 190.976562 305.75 193.765625 308.535156 193.765625 311.976562 L 193.765625 352.984375 L 201.820312 344.933594 C 204.25 342.503906 208.195312 342.503906 210.625 344.933594 Z M 374.164062 307.25 C 375.054688 310.574219 373.082031 313.988281 369.761719 314.878906 L 344.238281 321.714844 C 343.699219 321.859375 343.15625 321.929688 342.625 321.929688 C 339.875 321.929688 337.359375 320.09375 336.613281 317.3125 C 335.722656 313.988281 337.695312 310.574219 341.015625 309.6875 L 352.015625 306.738281 L 316.492188 286.234375 C 313.515625 284.515625 312.492188 280.707031 314.214844 277.726562 C 315.933594 274.75 319.742188 273.730469 322.722656 275.449219 L 358.242188 295.953125 L 355.292969 284.957031 C 354.402344 281.632812 356.375 278.21875 359.699219 277.328125 C 363.019531 276.441406 366.4375 278.410156 367.328125 281.734375 Z M 314.214844 97.144531 C 312.492188 94.167969 313.515625 90.359375 316.492188 88.640625 L 352.015625 68.132812 L 341.015625 65.1875 C 337.691406 64.296875 335.722656 60.882812 336.613281 57.5625 C 337.503906 54.238281 340.917969 52.269531 344.238281 53.15625 L 369.761719 59.996094 C 373.085938 60.886719 375.054688 64.300781 374.164062 67.621094 L 367.328125 93.140625 C 366.582031 95.921875 364.066406 97.757812 361.316406 97.757812 C 360.78125 97.757812 360.238281 97.6875 359.699219 97.546875 C 356.375 96.65625 354.40625 93.242188 355.296875 89.917969 L 358.242188 78.921875 L 322.722656 99.425781 C 321.742188 99.992188 320.671875 100.261719 319.613281 100.261719 C 317.460938 100.257812 315.367188 99.144531 314.214844 97.144531 Z M 125.269531 162.527344 C 125.269531 159.089844 128.054688 156.300781 131.496094 156.300781 L 131.503906 156.300781 C 134.941406 156.300781 137.730469 159.089844 137.730469 162.527344 C 137.730469 165.96875 134.941406 168.753906 131.503906 168.753906 C 128.0625 168.753906 125.269531 165.96875 125.269531 162.527344 Z M 125.269531 218.570312 C 125.269531 215.132812 128.054688 212.34375 131.496094 212.34375 L 131.503906 212.34375 C 134.941406 212.34375 137.730469 215.132812 137.730469 218.570312 C 137.730469 222.011719 134.941406 224.796875 131.503906 224.796875 C 128.0625 224.796875 125.269531 222.011719 125.269531 218.570312 Z M 137.730469 274.613281 C 137.730469 278.054688 134.941406 280.839844 131.503906 280.839844 C 128.0625 280.839844 125.269531 278.054688 125.269531 274.613281 C 125.269531 271.175781 128.054688 268.386719 131.496094 268.386719 L 131.503906 268.386719 C 134.941406 268.386719 137.730469 271.175781 137.730469 274.613281 Z M 243.589844 150.074219 C 247.03125 150.074219 249.816406 152.863281 249.816406 156.300781 L 249.816406 162.527344 C 249.816406 165.96875 247.03125 168.753906 243.589844 168.753906 C 240.152344 168.753906 237.363281 165.96875 237.363281 162.527344 L 237.363281 156.300781 C 237.363281 152.863281 240.152344 150.074219 243.589844 150.074219 Z M 224.90625 150.074219 C 228.347656 150.074219 231.132812 152.863281 231.132812 156.300781 L 231.132812 162.527344 C 231.132812 165.96875 228.347656 168.753906 224.90625 168.753906 C 221.46875 168.753906 218.679688 165.96875 218.679688 162.527344 L 218.679688 156.300781 C 218.679688 152.863281 221.46875 150.074219 224.90625 150.074219 Z M 206.222656 150.074219 C 209.664062 150.074219 212.449219 152.863281 212.449219 156.300781 L 212.449219 162.527344 C 212.449219 165.96875 209.664062 168.753906 206.222656 168.753906 C 202.785156 168.753906 199.996094 165.96875 199.996094 162.527344 L 199.996094 156.300781 C 199.996094 152.863281 202.785156 150.074219 206.222656 150.074219 Z M 187.539062 150.074219 C 190.976562 150.074219 193.765625 152.863281 193.765625 156.300781 L 193.765625 162.527344 C 193.765625 165.96875 190.976562 168.753906 187.539062 168.753906 C 184.097656 168.753906 181.3125 165.96875 181.3125 162.527344 L 181.3125 156.300781 C 181.3125 152.863281 184.097656 150.074219 187.539062 150.074219 Z M 243.589844 206.117188 C 247.03125 206.117188 249.816406 208.90625 249.816406 212.34375 L 249.816406 218.570312 C 249.816406 222.011719 247.03125 224.796875 243.589844 224.796875 C 240.152344 224.796875 237.363281 222.011719 237.363281 218.570312 L 237.363281 212.34375 C 237.363281 208.90625 240.152344 206.117188 243.589844 206.117188 Z M 224.90625 206.117188 C 228.347656 206.117188 231.132812 208.90625 231.132812 212.34375 L 231.132812 218.570312 C 231.132812 222.011719 228.347656 224.796875 224.90625 224.796875 C 221.46875 224.796875 218.679688 222.011719 218.679688 218.570312 L 218.679688 212.34375 C 218.679688 208.90625 221.46875 206.117188 224.90625 206.117188 Z M 206.222656 206.117188 C 209.664062 206.117188 212.449219 208.90625 212.449219 212.34375 L 212.449219 218.570312 C 212.449219 222.011719 209.664062 224.796875 206.222656 224.796875 C 202.785156 224.796875 199.996094 222.011719 199.996094 218.570312 L 199.996094 212.34375 C 199.996094 208.90625 202.785156 206.117188 206.222656 206.117188 Z M 187.539062 206.117188 C 190.976562 206.117188 193.765625 208.90625 193.765625 212.34375 L 193.765625 218.570312 C 193.765625 222.011719 190.976562 224.796875 187.539062 224.796875 C 184.097656 224.796875 181.3125 222.011719 181.3125 218.570312 L 181.3125 212.34375 C 181.3125 208.90625 184.097656 206.117188 187.539062 206.117188 Z M 243.589844 262.160156 C 247.03125 262.160156 249.816406 264.949219 249.816406 268.386719 L 249.816406 274.613281 C 249.816406 278.054688 247.03125 280.839844 243.589844 280.839844 C 240.152344 280.839844 237.363281 278.054688 237.363281 274.613281 L 237.363281 268.386719 C 237.363281 264.949219 240.152344 262.160156 243.589844 262.160156 Z M 224.90625 262.160156 C 228.347656 262.160156 231.132812 264.949219 231.132812 268.386719 L 231.132812 274.613281 C 231.132812 278.054688 228.347656 280.839844 224.90625 280.839844 C 221.46875 280.839844 218.679688 278.054688 218.679688 274.613281 L 218.679688 268.386719 C 218.679688 264.949219 221.46875 262.160156 224.90625 262.160156 Z M 206.222656 262.160156 C 209.664062 262.160156 212.449219 264.949219 212.449219 268.386719 L 212.449219 274.613281 C 212.449219 278.054688 209.664062 280.839844 206.222656 280.839844 C 202.785156 280.839844 199.996094 278.054688 199.996094 274.613281 L 199.996094 268.386719 C 199.996094 264.949219 202.785156 262.160156 206.222656 262.160156 Z M 187.539062 262.160156 C 190.976562 262.160156 193.765625 264.949219 193.765625 268.386719 L 193.765625 274.613281 C 193.765625 278.054688 190.976562 280.839844 187.539062 280.839844 C 184.097656 280.839844 181.3125 278.054688 181.3125 274.613281 L 181.3125 268.386719 C 181.3125 264.949219 184.097656 262.160156 187.539062 262.160156 Z M 187.539062 262.160156 " clip-rule="nonzero"/></clipPath><linearGradient x1="15.564001" gradientTransform="matrix(0.778493, 0, 0, 0.778371, -11.755237, -11.8266)" y1="496.435988" x2="496.789999" gradientUnits="userSpaceOnUse" y2="15.20999" id="369d2449e3"><stop stop-opacity="1" stop-color="rgb(36.898804%, 73.699951%, 89.7995%)" offset="0"/><stop stop-opacity="1" stop-color="rgb(36.898804%, 73.699951%, 89.7995%)" offset="0.0625"/><stop stop-opacity="1" stop-color="rgb(36.898804%, 73.699951%, 89.7995%)" offset="0.078125"/><stop stop-opacity="1" stop-color="rgb(36.947632%, 73.661804%, 89.7995%)" offset="0.0859375"/><stop stop-opacity="1" stop-color="rgb(37.313843%, 73.379517%, 89.804077%)" offset="0.0898438"/><stop stop-opacity="1" stop-color="rgb(37.631226%, 73.135376%, 89.807129%)" offset="0.09375"/><stop stop-opacity="1" stop-color="rgb(37.948608%, 72.889709%, 89.810181%)" offset="0.0976563"/><stop stop-opacity="1" stop-color="rgb(38.265991%, 72.645569%, 89.814758%)" offset="0.101563"/><stop stop-opacity="1" stop-color="rgb(38.581848%, 72.401428%, 89.81781%)" offset="0.105469"/><stop stop-opacity="1" stop-color="rgb(38.899231%, 72.157288%, 89.822388%)" offset="0.109375"/><stop stop-opacity="1" stop-color="rgb(39.216614%, 71.911621%, 89.825439%)" offset="0.113281"/><stop stop-opacity="1" stop-color="rgb(39.533997%, 71.66748%, 89.830017%)" offset="0.117188"/><stop stop-opacity="1" stop-color="rgb(39.851379%, 71.421814%, 89.833069%)" offset="0.121094"/><stop stop-opacity="1" stop-color="rgb(40.168762%, 71.177673%, 89.837646%)" offset="0.125"/><stop stop-opacity="1" stop-color="rgb(40.486145%, 70.933533%, 89.840698%)" offset="0.128906"/><stop stop-opacity="1" stop-color="rgb(40.803528%, 70.689392%, 89.84375%)" offset="0.132812"/><stop stop-opacity="1" stop-color="rgb(41.120911%, 70.443726%, 89.846802%)" offset="0.136719"/><stop stop-opacity="1" stop-color="rgb(41.438293%, 70.199585%, 89.851379%)" offset="0.140625"/><stop stop-opacity="1" stop-color="rgb(41.75415%, 69.955444%, 89.854431%)" offset="0.144531"/><stop stop-opacity="1" stop-color="rgb(42.071533%, 69.711304%, 89.859009%)" offset="0.148438"/><stop stop-opacity="1" stop-color="rgb(42.388916%, 69.465637%, 89.862061%)" offset="0.152344"/><stop stop-opacity="1" stop-color="rgb(42.706299%, 69.221497%, 89.866638%)" offset="0.15625"/><stop stop-opacity="1" stop-color="rgb(43.023682%, 68.977356%, 89.86969%)" offset="0.160156"/><stop stop-opacity="1" stop-color="rgb(43.341064%, 68.733215%, 89.874268%)" offset="0.164063"/><stop stop-opacity="1" stop-color="rgb(43.658447%, 68.487549%, 89.877319%)" offset="0.167969"/><stop stop-opacity="1" stop-color="rgb(43.97583%, 68.243408%, 89.881897%)" offset="0.171875"/><stop stop-opacity="1" stop-color="rgb(44.291687%, 67.999268%, 89.884949%)" offset="0.175781"/><stop stop-opacity="1" stop-color="rgb(44.60907%, 67.755127%, 89.888%)" offset="0.179688"/><stop stop-opacity="1" stop-color="rgb(44.926453%, 67.50946%, 89.891052%)" offset="0.183594"/><stop stop-opacity="1" stop-color="rgb(45.243835%, 67.26532%, 89.89563%)" offset="0.1875"/><stop stop-opacity="1" stop-color="rgb(45.561218%, 67.019653%, 89.898682%)" offset="0.191406"/><stop stop-opacity="1" stop-color="rgb(45.878601%, 66.775513%, 89.903259%)" offset="0.195312"/><stop stop-opacity="1" stop-color="rgb(46.195984%, 66.531372%, 89.906311%)" offset="0.199219"/><stop stop-opacity="1" stop-color="rgb(46.513367%, 66.287231%, 89.910889%)" offset="0.203125"/><stop stop-opacity="1" stop-color="rgb(46.829224%, 66.041565%, 89.91394%)" offset="0.207031"/><stop stop-opacity="1" stop-color="rgb(47.146606%, 65.797424%, 89.918518%)" offset="0.210938"/><stop stop-opacity="1" stop-color="rgb(47.463989%, 65.553284%, 89.92157%)" offset="0.214844"/><stop stop-opacity="1" stop-color="rgb(47.781372%, 65.309143%, 89.926147%)" offset="0.21875"/><stop stop-opacity="1" stop-color="rgb(48.098755%, 65.063477%, 89.929199%)" offset="0.222656"/><stop stop-opacity="1" stop-color="rgb(48.416138%, 64.819336%, 89.932251%)" offset="0.226563"/><stop stop-opacity="1" stop-color="rgb(48.733521%, 64.575195%, 89.935303%)" offset="0.230469"/><stop stop-opacity="1" stop-color="rgb(49.050903%, 64.331055%, 89.93988%)" offset="0.234375"/><stop stop-opacity="1" stop-color="rgb(49.368286%, 64.085388%, 89.942932%)" offset="0.238281"/><stop stop-opacity="1" stop-color="rgb(49.685669%, 63.841248%, 89.94751%)" offset="0.242188"/><stop stop-opacity="1" stop-color="rgb(50.001526%, 63.595581%, 89.950562%)" offset="0.246094"/><stop stop-opacity="1" stop-color="rgb(50.318909%, 63.35144%, 89.955139%)" offset="0.25"/><stop stop-opacity="1" stop-color="rgb(50.636292%, 63.1073%, 89.958191%)" offset="0.253906"/><stop stop-opacity="1" stop-color="rgb(50.953674%, 62.863159%, 89.962769%)" offset="0.257812"/><stop stop-opacity="1" stop-color="rgb(51.271057%, 62.617493%, 89.96582%)" offset="0.261719"/><stop stop-opacity="1" stop-color="rgb(51.58844%, 62.373352%, 89.968872%)" offset="0.265625"/><stop stop-opacity="1" stop-color="rgb(51.905823%, 62.129211%, 89.971924%)" offset="0.269531"/><stop stop-opacity="1" stop-color="rgb(52.223206%, 61.885071%, 89.976501%)" offset="0.273438"/><stop stop-opacity="1" stop-color="rgb(52.539062%, 61.639404%, 89.979553%)" offset="0.277344"/><stop stop-opacity="1" stop-color="rgb(52.856445%, 61.395264%, 89.984131%)" offset="0.28125"/><stop stop-opacity="1" stop-color="rgb(53.173828%, 61.151123%, 89.987183%)" offset="0.285156"/><stop stop-opacity="1" stop-color="rgb(53.491211%, 60.906982%, 89.99176%)" offset="0.289063"/><stop stop-opacity="1" stop-color="rgb(53.808594%, 60.661316%, 89.994812%)" offset="0.292969"/><stop stop-opacity="1" stop-color="rgb(54.125977%, 60.417175%, 89.99939%)" offset="0.296875"/><stop stop-opacity="1" stop-color="rgb(54.443359%, 60.173035%, 90.002441%)" offset="0.300781"/><stop stop-opacity="1" stop-color="rgb(54.760742%, 59.928894%, 90.007019%)" offset="0.304688"/><stop stop-opacity="1" stop-color="rgb(55.076599%, 59.683228%, 90.010071%)" offset="0.308594"/><stop stop-opacity="1" stop-color="rgb(55.393982%, 59.439087%, 90.013123%)" offset="0.3125"/><stop stop-opacity="1" stop-color="rgb(55.711365%, 59.19342%, 90.016174%)" offset="0.316406"/><stop stop-opacity="1" stop-color="rgb(56.028748%, 58.94928%, 90.020752%)" offset="0.320312"/><stop stop-opacity="1" stop-color="rgb(56.34613%, 58.705139%, 90.023804%)" offset="0.324219"/><stop stop-opacity="1" stop-color="rgb(56.663513%, 58.460999%, 90.028381%)" offset="0.328125"/><stop stop-opacity="1" stop-color="rgb(56.980896%, 58.215332%, 90.031433%)" offset="0.332031"/><stop stop-opacity="1" stop-color="rgb(57.298279%, 57.971191%, 90.036011%)" offset="0.335938"/><stop stop-opacity="1" stop-color="rgb(57.614136%, 57.727051%, 90.039062%)" offset="0.339844"/><stop stop-opacity="1" stop-color="rgb(57.931519%, 57.48291%, 90.04364%)" offset="0.34375"/><stop stop-opacity="1" stop-color="rgb(58.248901%, 57.237244%, 90.046692%)" offset="0.347656"/><stop stop-opacity="1" stop-color="rgb(58.566284%, 56.993103%, 90.049744%)" offset="0.351563"/><stop stop-opacity="1" stop-color="rgb(58.883667%, 56.748962%, 90.052795%)" offset="0.355469"/><stop stop-opacity="1" stop-color="rgb(59.20105%, 56.504822%, 90.057373%)" offset="0.359375"/><stop stop-opacity="1" stop-color="rgb(59.518433%, 56.259155%, 90.060425%)" offset="0.363281"/><stop stop-opacity="1" stop-color="rgb(59.835815%, 56.015015%, 90.065002%)" offset="0.367188"/><stop stop-opacity="1" stop-color="rgb(60.153198%, 55.769348%, 90.068054%)" offset="0.371094"/><stop stop-opacity="1" stop-color="rgb(60.470581%, 55.525208%, 90.072632%)" offset="0.375"/><stop stop-opacity="1" stop-color="rgb(60.786438%, 55.281067%, 90.075684%)" offset="0.378906"/><stop stop-opacity="1" stop-color="rgb(61.103821%, 55.036926%, 90.080261%)" offset="0.382813"/><stop stop-opacity="1" stop-color="rgb(61.421204%, 54.79126%, 90.083313%)" offset="0.386719"/><stop stop-opacity="1" stop-color="rgb(61.738586%, 54.547119%, 90.087891%)" offset="0.390625"/><stop stop-opacity="1" stop-color="rgb(62.055969%, 54.302979%, 90.090942%)" offset="0.394531"/><stop stop-opacity="1" stop-color="rgb(62.373352%, 54.058838%, 90.093994%)" offset="0.398438"/><stop stop-opacity="1" stop-color="rgb(62.690735%, 53.813171%, 90.097046%)" offset="0.402344"/><stop stop-opacity="1" stop-color="rgb(63.008118%, 53.569031%, 90.101624%)" offset="0.40625"/><stop stop-opacity="1" stop-color="rgb(63.323975%, 53.32489%, 90.104675%)" offset="0.410156"/><stop stop-opacity="1" stop-color="rgb(63.641357%, 53.08075%, 90.109253%)" offset="0.414063"/><stop stop-opacity="1" stop-color="rgb(63.95874%, 52.835083%, 90.112305%)" offset="0.417969"/><stop stop-opacity="1" stop-color="rgb(64.276123%, 52.590942%, 90.116882%)" offset="0.421875"/><stop stop-opacity="1" stop-color="rgb(64.593506%, 52.346802%, 90.119934%)" offset="0.425781"/><stop stop-opacity="1" stop-color="rgb(64.910889%, 52.102661%, 90.124512%)" offset="0.429688"/><stop stop-opacity="1" stop-color="rgb(65.228271%, 51.856995%, 90.127563%)" offset="0.433594"/><stop stop-opacity="1" stop-color="rgb(65.545654%, 51.612854%, 90.130615%)" offset="0.4375"/><stop stop-opacity="1" stop-color="rgb(65.861511%, 51.367188%, 90.133667%)" offset="0.441406"/><stop stop-opacity="1" stop-color="rgb(66.178894%, 51.123047%, 90.138245%)" offset="0.445313"/><stop stop-opacity="1" stop-color="rgb(66.496277%, 50.878906%, 90.141296%)" offset="0.449219"/><stop stop-opacity="1" stop-color="rgb(66.81366%, 50.634766%, 90.145874%)" offset="0.453125"/><stop stop-opacity="1" stop-color="rgb(67.131042%, 50.389099%, 90.148926%)" offset="0.457031"/><stop stop-opacity="1" stop-color="rgb(67.448425%, 50.144958%, 90.153503%)" offset="0.460938"/><stop stop-opacity="1" stop-color="rgb(67.765808%, 49.900818%, 90.156555%)" offset="0.464844"/><stop stop-opacity="1" stop-color="rgb(68.083191%, 49.656677%, 90.161133%)" offset="0.46875"/><stop stop-opacity="1" stop-color="rgb(68.400574%, 49.411011%, 90.164185%)" offset="0.472656"/><stop stop-opacity="1" stop-color="rgb(68.717957%, 49.16687%, 90.168762%)" offset="0.476563"/><stop stop-opacity="1" stop-color="rgb(69.033813%, 48.922729%, 90.171814%)" offset="0.480469"/><stop stop-opacity="1" stop-color="rgb(69.351196%, 48.678589%, 90.174866%)" offset="0.484375"/><stop stop-opacity="1" stop-color="rgb(69.668579%, 48.432922%, 90.177917%)" offset="0.488281"/><stop stop-opacity="1" stop-color="rgb(69.985962%, 48.188782%, 90.182495%)" offset="0.492188"/><stop stop-opacity="1" stop-color="rgb(70.303345%, 47.943115%, 90.185547%)" offset="0.496094"/><stop stop-opacity="1" stop-color="rgb(70.620728%, 47.698975%, 90.190125%)" offset="0.5"/><stop stop-opacity="1" stop-color="rgb(70.93811%, 47.454834%, 90.193176%)" offset="0.503906"/><stop stop-opacity="1" stop-color="rgb(71.255493%, 47.210693%, 90.197754%)" offset="0.507813"/><stop stop-opacity="1" stop-color="rgb(71.455383%, 47.070312%, 89.808655%)" offset="0.511719"/><stop stop-opacity="1" stop-color="rgb(71.655273%, 46.929932%, 89.421082%)" offset="0.515625"/><stop stop-opacity="1" stop-color="rgb(71.821594%, 46.818542%, 88.917542%)" offset="0.519531"/><stop stop-opacity="1" stop-color="rgb(71.987915%, 46.708679%, 88.414001%)" offset="0.523438"/><stop stop-opacity="1" stop-color="rgb(72.15271%, 46.598816%, 87.910461%)" offset="0.527344"/><stop stop-opacity="1" stop-color="rgb(72.319031%, 46.488953%, 87.406921%)" offset="0.53125"/><stop stop-opacity="1" stop-color="rgb(72.485352%, 46.379089%, 86.903381%)" offset="0.535156"/><stop stop-opacity="1" stop-color="rgb(72.651672%, 46.269226%, 86.399841%)" offset="0.539063"/><stop stop-opacity="1" stop-color="rgb(72.816467%, 46.159363%, 85.896301%)" offset="0.542969"/><stop stop-opacity="1" stop-color="rgb(72.982788%, 46.0495%, 85.392761%)" offset="0.546875"/><stop stop-opacity="1" stop-color="rgb(73.149109%, 45.939636%, 84.889221%)" offset="0.550781"/><stop stop-opacity="1" stop-color="rgb(73.31543%, 45.829773%, 84.385681%)" offset="0.554688"/><stop stop-opacity="1" stop-color="rgb(73.480225%, 45.71991%, 83.882141%)" offset="0.558594"/><stop stop-opacity="1" stop-color="rgb(73.646545%, 45.610046%, 83.378601%)" offset="0.5625"/><stop stop-opacity="1" stop-color="rgb(73.812866%, 45.500183%, 82.875061%)" offset="0.566406"/><stop stop-opacity="1" stop-color="rgb(73.979187%, 45.39032%, 82.371521%)" offset="0.570313"/><stop stop-opacity="1" stop-color="rgb(74.143982%, 45.278931%, 81.867981%)" offset="0.574219"/><stop stop-opacity="1" stop-color="rgb(74.310303%, 45.169067%, 81.364441%)" offset="0.578125"/><stop stop-opacity="1" stop-color="rgb(74.475098%, 45.059204%, 80.860901%)" offset="0.582031"/><stop stop-opacity="1" stop-color="rgb(74.641418%, 44.949341%, 80.357361%)" offset="0.585938"/><stop stop-opacity="1" stop-color="rgb(74.807739%, 44.839478%, 79.853821%)" offset="0.589844"/><stop stop-opacity="1" stop-color="rgb(74.97406%, 44.729614%, 79.350281%)" offset="0.59375"/><stop stop-opacity="1" stop-color="rgb(75.138855%, 44.619751%, 78.846741%)" offset="0.597656"/><stop stop-opacity="1" stop-color="rgb(75.305176%, 44.509888%, 78.343201%)" offset="0.601563"/><stop stop-opacity="1" stop-color="rgb(75.471497%, 44.400024%, 77.839661%)" offset="0.605469"/><stop stop-opacity="1" stop-color="rgb(75.637817%, 44.290161%, 77.336121%)" offset="0.609375"/><stop stop-opacity="1" stop-color="rgb(75.802612%, 44.180298%, 76.832581%)" offset="0.613281"/><stop stop-opacity="1" stop-color="rgb(75.968933%, 44.070435%, 76.329041%)" offset="0.617188"/><stop stop-opacity="1" stop-color="rgb(76.135254%, 43.960571%, 75.8255%)" offset="0.621094"/><stop stop-opacity="1" stop-color="rgb(76.301575%, 43.850708%, 75.32196%)" offset="0.625"/><stop stop-opacity="1" stop-color="rgb(76.46637%, 43.739319%, 74.81842%)" offset="0.628906"/><stop stop-opacity="1" stop-color="rgb(76.63269%, 43.629456%, 74.31488%)" offset="0.632813"/><stop stop-opacity="1" stop-color="rgb(76.799011%, 43.519592%, 73.81134%)" offset="0.636719"/><stop stop-opacity="1" stop-color="rgb(76.965332%, 43.409729%, 73.3078%)" offset="0.640625"/><stop stop-opacity="1" stop-color="rgb(77.130127%, 43.299866%, 72.80426%)" offset="0.644531"/><stop stop-opacity="1" stop-color="rgb(77.296448%, 43.190002%, 72.30072%)" offset="0.648438"/><stop stop-opacity="1" stop-color="rgb(77.462769%, 43.080139%, 71.79718%)" offset="0.652344"/><stop stop-opacity="1" stop-color="rgb(77.629089%, 42.970276%, 71.29364%)" offset="0.65625"/><stop stop-opacity="1" stop-color="rgb(77.793884%, 42.860413%, 70.7901%)" offset="0.660156"/><stop stop-opacity="1" stop-color="rgb(77.960205%, 42.750549%, 70.28656%)" offset="0.664062"/><stop stop-opacity="1" stop-color="rgb(78.126526%, 42.640686%, 69.78302%)" offset="0.667969"/><stop stop-opacity="1" stop-color="rgb(78.292847%, 42.530823%, 69.27948%)" offset="0.671875"/><stop stop-opacity="1" stop-color="rgb(78.457642%, 42.420959%, 68.77594%)" offset="0.675781"/><stop stop-opacity="1" stop-color="rgb(78.623962%, 42.311096%, 68.2724%)" offset="0.679688"/><stop stop-opacity="1" stop-color="rgb(78.790283%, 42.201233%, 67.76886%)" offset="0.683594"/><stop stop-opacity="1" stop-color="rgb(78.956604%, 42.09137%, 67.26532%)" offset="0.6875"/><stop stop-opacity="1" stop-color="rgb(79.121399%, 41.97998%, 66.76178%)" offset="0.691406"/><stop stop-opacity="1" stop-color="rgb(79.28772%, 41.870117%, 66.25824%)" offset="0.695312"/><stop stop-opacity="1" stop-color="rgb(79.454041%, 41.760254%, 65.7547%)" offset="0.699219"/><stop stop-opacity="1" stop-color="rgb(79.620361%, 41.650391%, 65.25116%)" offset="0.703125"/><stop stop-opacity="1" stop-color="rgb(79.785156%, 41.540527%, 64.74762%)" offset="0.707031"/><stop stop-opacity="1" stop-color="rgb(79.951477%, 41.430664%, 64.24408%)" offset="0.710938"/><stop stop-opacity="1" stop-color="rgb(80.117798%, 41.320801%, 63.74054%)" offset="0.714844"/><stop stop-opacity="1" stop-color="rgb(80.284119%, 41.210938%, 63.237%)" offset="0.71875"/><stop stop-opacity="1" stop-color="rgb(80.448914%, 41.101074%, 62.733459%)" offset="0.722656"/><stop stop-opacity="1" stop-color="rgb(80.615234%, 40.991211%, 62.229919%)" offset="0.726563"/><stop stop-opacity="1" stop-color="rgb(80.781555%, 40.881348%, 61.726379%)" offset="0.730469"/><stop stop-opacity="1" stop-color="rgb(80.947876%, 40.771484%, 61.222839%)" offset="0.734375"/><stop stop-opacity="1" stop-color="rgb(81.112671%, 40.661621%, 60.719299%)" offset="0.738281"/><stop stop-opacity="1" stop-color="rgb(81.278992%, 40.551758%, 60.215759%)" offset="0.742188"/><stop stop-opacity="1" stop-color="rgb(81.443787%, 40.440369%, 59.712219%)" offset="0.746094"/><stop stop-opacity="1" stop-color="rgb(81.610107%, 40.330505%, 59.208679%)" offset="0.75"/><stop stop-opacity="1" stop-color="rgb(81.776428%, 40.220642%, 58.705139%)" offset="0.753906"/><stop stop-opacity="1" stop-color="rgb(81.942749%, 40.110779%, 58.201599%)" offset="0.757813"/><stop stop-opacity="1" stop-color="rgb(82.107544%, 40.000916%, 57.698059%)" offset="0.761719"/><stop stop-opacity="1" stop-color="rgb(82.273865%, 39.891052%, 57.194519%)" offset="0.765625"/><stop stop-opacity="1" stop-color="rgb(82.440186%, 39.781189%, 56.690979%)" offset="0.769531"/><stop stop-opacity="1" stop-color="rgb(82.606506%, 39.671326%, 56.187439%)" offset="0.773438"/><stop stop-opacity="1" stop-color="rgb(82.771301%, 39.561462%, 55.683899%)" offset="0.777344"/><stop stop-opacity="1" stop-color="rgb(82.937622%, 39.451599%, 55.180359%)" offset="0.78125"/><stop stop-opacity="1" stop-color="rgb(83.103943%, 39.341736%, 54.676819%)" offset="0.785156"/><stop stop-opacity="1" stop-color="rgb(83.270264%, 39.231873%, 54.173279%)" offset="0.789063"/><stop stop-opacity="1" stop-color="rgb(83.435059%, 39.122009%, 53.669739%)" offset="0.792969"/><stop stop-opacity="1" stop-color="rgb(83.601379%, 39.012146%, 53.166199%)" offset="0.796875"/><stop stop-opacity="1" stop-color="rgb(83.7677%, 38.900757%, 52.662659%)" offset="0.800781"/><stop stop-opacity="1" stop-color="rgb(83.934021%, 38.790894%, 52.159119%)" offset="0.804688"/><stop stop-opacity="1" stop-color="rgb(84.098816%, 38.68103%, 51.655579%)" offset="0.808594"/><stop stop-opacity="1" stop-color="rgb(84.265137%, 38.571167%, 51.152039%)" offset="0.8125"/><stop stop-opacity="1" stop-color="rgb(84.431458%, 38.461304%, 50.648499%)" offset="0.816406"/><stop stop-opacity="1" stop-color="rgb(84.597778%, 38.35144%, 50.144958%)" offset="0.820313"/><stop stop-opacity="1" stop-color="rgb(84.762573%, 38.241577%, 49.641418%)" offset="0.824219"/><stop stop-opacity="1" stop-color="rgb(84.928894%, 38.131714%, 49.137878%)" offset="0.828125"/><stop stop-opacity="1" stop-color="rgb(85.095215%, 38.021851%, 48.634338%)" offset="0.832031"/><stop stop-opacity="1" stop-color="rgb(85.261536%, 37.911987%, 48.130798%)" offset="0.835938"/><stop stop-opacity="1" stop-color="rgb(85.426331%, 37.802124%, 47.627258%)" offset="0.839844"/><stop stop-opacity="1" stop-color="rgb(85.592651%, 37.692261%, 47.123718%)" offset="0.84375"/><stop stop-opacity="1" stop-color="rgb(85.758972%, 37.582397%, 46.620178%)" offset="0.847656"/><stop stop-opacity="1" stop-color="rgb(85.925293%, 37.472534%, 46.116638%)" offset="0.851563"/><stop stop-opacity="1" stop-color="rgb(86.090088%, 37.361145%, 45.611572%)" offset="0.855469"/><stop stop-opacity="1" stop-color="rgb(86.256409%, 37.251282%, 45.108032%)" offset="0.859375"/><stop stop-opacity="1" stop-color="rgb(86.422729%, 37.141418%, 44.604492%)" offset="0.863281"/><stop stop-opacity="1" stop-color="rgb(86.58905%, 37.031555%, 44.100952%)" offset="0.867188"/><stop stop-opacity="1" stop-color="rgb(86.753845%, 36.921692%, 43.597412%)" offset="0.871094"/><stop stop-opacity="1" stop-color="rgb(86.920166%, 36.811829%, 43.093872%)" offset="0.875"/><stop stop-opacity="1" stop-color="rgb(87.086487%, 36.701965%, 42.590332%)" offset="0.878906"/><stop stop-opacity="1" stop-color="rgb(87.252808%, 36.592102%, 42.086792%)" offset="0.882812"/><stop stop-opacity="1" stop-color="rgb(87.417603%, 36.482239%, 41.583252%)" offset="0.886719"/><stop stop-opacity="1" stop-color="rgb(87.583923%, 36.372375%, 41.079712%)" offset="0.890625"/><stop stop-opacity="1" stop-color="rgb(87.750244%, 36.262512%, 40.576172%)" offset="0.894531"/><stop stop-opacity="1" stop-color="rgb(87.916565%, 36.152649%, 40.072632%)" offset="0.898438"/><stop stop-opacity="1" stop-color="rgb(88.08136%, 36.042786%, 39.569092%)" offset="0.902344"/><stop stop-opacity="1" stop-color="rgb(88.247681%, 35.932922%, 39.065552%)" offset="0.90625"/><stop stop-opacity="1" stop-color="rgb(88.412476%, 35.821533%, 38.562012%)" offset="0.910156"/><stop stop-opacity="1" stop-color="rgb(88.578796%, 35.71167%, 38.058472%)" offset="0.914062"/><stop stop-opacity="1" stop-color="rgb(88.587952%, 35.705566%, 38.027954%)" offset="0.921875"/><stop stop-opacity="1" stop-color="rgb(88.598633%, 35.699463%, 37.998962%)" offset="0.9375"/><stop stop-opacity="1" stop-color="rgb(88.598633%, 35.699463%, 37.998962%)" offset="1"/></linearGradient></defs><g clip-path="url(#c26a660977)"><g clip-path="url(#ac2bbfa219)"><path fill="url(#369d2449e3)" d="M 0.0234375 0.0195312 L 0.0234375 374.246094 L 375 374.246094 L 375 0.0195312 Z M 0.0234375 0.0195312 " fill-rule="nonzero"/></g></g></svg>