<svg xmlns="http://www.w3.org/2000/svg" xmlns:xlink="http://www.w3.org/1999/xlink" width="500" zoomAndPan="magnify" viewBox="0 0 375 374.999991" height="500" preserveAspectRatio="xMidYMid meet" version="1.0"><defs><clipPath id="4fea5643f6"><path d="M 143 312 L 182 312 L 182 375 L 143 375 Z M 143 312 " clip-rule="nonzero"/></clipPath><clipPath id="818ca3aa44"><path d="M 175 312.5 C 171.542969 312.5 168.75 315.300781 168.75 318.75 L 168.75 332.617188 L 148.488281 337.6875 C 145.699219 338.382812 143.75 340.882812 143.75 343.75 L 143.75 368.75 C 143.75 372.199219 146.542969 375 150 375 C 153.457031 375 156.25 372.199219 156.25 368.75 L 156.25 348.632812 L 176.511719 343.5625 C 179.292969 342.867188 181.25 340.367188 181.25 337.5 L 181.25 318.75 C 181.25 315.300781 178.457031 312.5 175 312.5 Z M 175 312.5 " clip-rule="nonzero"/></clipPath><linearGradient x1="24.004514" gradientTransform="matrix(6.249999, 0, 0, 6.249999, -12.499994, -12.5)" y1="52.992438" x2="31.995286" gradientUnits="userSpaceOnUse" y2="61.007764" id="5371a7cc35"><stop stop-opacity="1" stop-color="rgb(33.961487%, 47.749329%, 73.754883%)" offset="0"/><stop stop-opacity="1" stop-color="rgb(33.860779%, 47.892761%, 73.834229%)" offset="0.03125"/><stop stop-opacity="1" stop-color="rgb(33.660889%, 48.181152%, 73.994446%)" offset="0.0625"/><stop stop-opacity="1" stop-color="rgb(33.459473%, 48.469543%, 74.154663%)" offset="0.09375"/><stop stop-opacity="1" stop-color="rgb(33.259583%, 48.756409%, 74.31488%)" offset="0.125"/><stop stop-opacity="1" stop-color="rgb(33.059692%, 49.0448%, 74.476624%)" offset="0.15625"/><stop stop-opacity="1" stop-color="rgb(32.859802%, 49.333191%, 74.636841%)" offset="0.1875"/><stop stop-opacity="1" stop-color="rgb(32.659912%, 49.621582%, 74.797058%)" offset="0.21875"/><stop stop-opacity="1" stop-color="rgb(32.458496%, 49.909973%, 74.957275%)" offset="0.25"/><stop stop-opacity="1" stop-color="rgb(32.258606%, 50.198364%, 75.117493%)" offset="0.28125"/><stop stop-opacity="1" stop-color="rgb(32.058716%, 50.486755%, 75.27771%)" offset="0.3125"/><stop stop-opacity="1" stop-color="rgb(31.858826%, 50.775146%, 75.437927%)" offset="0.34375"/><stop stop-opacity="1" stop-color="rgb(31.65741%, 51.063538%, 75.59967%)" offset="0.374281"/><stop stop-opacity="1" stop-color="rgb(31.558228%, 51.208496%, 75.680542%)" offset="0.375"/><stop stop-opacity="1" stop-color="rgb(31.45752%, 51.351929%, 75.759888%)" offset="0.40625"/><stop stop-opacity="1" stop-color="rgb(31.257629%, 51.64032%, 75.920105%)" offset="0.4375"/><stop stop-opacity="1" stop-color="rgb(31.057739%, 51.928711%, 76.080322%)" offset="0.46875"/><stop stop-opacity="1" stop-color="rgb(30.856323%, 52.217102%, 76.24054%)" offset="0.5"/><stop stop-opacity="1" stop-color="rgb(30.656433%, 52.505493%, 76.400757%)" offset="0.53125"/><stop stop-opacity="1" stop-color="rgb(30.456543%, 52.793884%, 76.560974%)" offset="0.5625"/><stop stop-opacity="1" stop-color="rgb(30.256653%, 53.082275%, 76.721191%)" offset="0.59375"/><stop stop-opacity="1" stop-color="rgb(30.056763%, 53.369141%, 76.882935%)" offset="0.625"/><stop stop-opacity="1" stop-color="rgb(29.855347%, 53.657532%, 77.043152%)" offset="0.625719"/><stop stop-opacity="1" stop-color="rgb(29.756165%, 53.80249%, 77.124023%)" offset="0.65625"/><stop stop-opacity="1" stop-color="rgb(29.655457%, 53.945923%, 77.203369%)" offset="0.6875"/><stop stop-opacity="1" stop-color="rgb(29.455566%, 54.234314%, 77.363586%)" offset="0.71875"/><stop stop-opacity="1" stop-color="rgb(29.255676%, 54.522705%, 77.523804%)" offset="0.75"/><stop stop-opacity="1" stop-color="rgb(29.05426%, 54.811096%, 77.684021%)" offset="0.78125"/><stop stop-opacity="1" stop-color="rgb(28.85437%, 55.099487%, 77.844238%)" offset="0.8125"/><stop stop-opacity="1" stop-color="rgb(28.65448%, 55.387878%, 78.004456%)" offset="0.84375"/><stop stop-opacity="1" stop-color="rgb(28.45459%, 55.67627%, 78.166199%)" offset="0.875"/><stop stop-opacity="1" stop-color="rgb(28.2547%, 55.964661%, 78.326416%)" offset="0.90625"/><stop stop-opacity="1" stop-color="rgb(28.053284%, 56.253052%, 78.486633%)" offset="0.9375"/><stop stop-opacity="1" stop-color="rgb(27.853394%, 56.541443%, 78.646851%)" offset="0.96875"/><stop stop-opacity="1" stop-color="rgb(27.653503%, 56.829834%, 78.807068%)" offset="1"/></linearGradient><clipPath id="7c24b7e929"><path d="M 200 287 L 250 287 L 250 375 L 200 375 Z M 200 287 " clip-rule="nonzero"/></clipPath><clipPath id="c2c2d57b70"><path d="M 246.542969 344.40625 L 225 333.636719 L 225 323.851562 C 232.257812 321.261719 237.5 314.386719 237.5 306.25 C 237.5 295.914062 229.085938 287.5 218.75 287.5 C 208.414062 287.5 200 295.914062 200 306.25 C 200 314.386719 205.242188 321.261719 212.5 323.851562 L 212.5 337.5 C 212.5 339.867188 213.835938 342.03125 215.957031 343.09375 L 237.5 353.863281 L 237.5 368.75 C 237.5 372.199219 240.292969 375 243.75 375 C 247.207031 375 250 372.199219 250 368.75 L 250 350 C 250 347.632812 248.664062 345.46875 246.542969 344.40625 Z M 218.75 300 C 222.199219 300 225 302.804688 225 306.25 C 225 309.695312 222.199219 312.5 218.75 312.5 C 215.300781 312.5 212.5 309.695312 212.5 306.25 C 212.5 302.804688 215.300781 300 218.75 300 Z M 218.75 300 " clip-rule="nonzero"/></clipPath><linearGradient x1="33.215189" gradientTransform="matrix(6.249999, 0, 0, 6.249999, -12.499994, -12.5)" y1="48.782395" x2="44.202821" gradientUnits="userSpaceOnUse" y2="59.803963" id="b9843fb35c"><stop stop-opacity="1" stop-color="rgb(31.967163%, 50.619507%, 75.352478%)" offset="0"/><stop stop-opacity="1" stop-color="rgb(31.898499%, 50.718689%, 75.40741%)" offset="0.015625"/><stop stop-opacity="1" stop-color="rgb(31.761169%, 50.917053%, 75.517273%)" offset="0.03125"/><stop stop-opacity="1" stop-color="rgb(31.62384%, 51.115417%, 75.627136%)" offset="0.046875"/><stop stop-opacity="1" stop-color="rgb(31.484985%, 51.312256%, 75.738525%)" offset="0.0625"/><stop stop-opacity="1" stop-color="rgb(31.347656%, 51.51062%, 75.848389%)" offset="0.078125"/><stop stop-opacity="1" stop-color="rgb(31.210327%, 51.708984%, 75.958252%)" offset="0.09375"/><stop stop-opacity="1" stop-color="rgb(31.072998%, 51.907349%, 76.068115%)" offset="0.109375"/><stop stop-opacity="1" stop-color="rgb(30.934143%, 52.105713%, 76.179504%)" offset="0.125"/><stop stop-opacity="1" stop-color="rgb(30.796814%, 52.304077%, 76.289368%)" offset="0.140625"/><stop stop-opacity="1" stop-color="rgb(30.659485%, 52.502441%, 76.399231%)" offset="0.15625"/><stop stop-opacity="1" stop-color="rgb(30.522156%, 52.700806%, 76.51062%)" offset="0.171875"/><stop stop-opacity="1" stop-color="rgb(30.384827%, 52.89917%, 76.620483%)" offset="0.1875"/><stop stop-opacity="1" stop-color="rgb(30.245972%, 53.097534%, 76.730347%)" offset="0.203125"/><stop stop-opacity="1" stop-color="rgb(30.108643%, 53.294373%, 76.84021%)" offset="0.21875"/><stop stop-opacity="1" stop-color="rgb(29.971313%, 53.492737%, 76.951599%)" offset="0.234375"/><stop stop-opacity="1" stop-color="rgb(29.833984%, 53.691101%, 77.061462%)" offset="0.25"/><stop stop-opacity="1" stop-color="rgb(29.695129%, 53.889465%, 77.171326%)" offset="0.265625"/><stop stop-opacity="1" stop-color="rgb(29.5578%, 54.08783%, 77.281189%)" offset="0.28125"/><stop stop-opacity="1" stop-color="rgb(29.420471%, 54.286194%, 77.392578%)" offset="0.296875"/><stop stop-opacity="1" stop-color="rgb(29.283142%, 54.484558%, 77.502441%)" offset="0.3125"/><stop stop-opacity="1" stop-color="rgb(29.145813%, 54.682922%, 77.612305%)" offset="0.328125"/><stop stop-opacity="1" stop-color="rgb(29.006958%, 54.881287%, 77.723694%)" offset="0.34375"/><stop stop-opacity="1" stop-color="rgb(28.869629%, 55.079651%, 77.833557%)" offset="0.359375"/><stop stop-opacity="1" stop-color="rgb(28.7323%, 55.276489%, 77.94342%)" offset="0.362923"/><stop stop-opacity="1" stop-color="rgb(28.663635%, 55.375671%, 77.998352%)" offset="0.375"/><stop stop-opacity="1" stop-color="rgb(28.594971%, 55.474854%, 78.053284%)" offset="0.390625"/><stop stop-opacity="1" stop-color="rgb(28.456116%, 55.673218%, 78.164673%)" offset="0.40625"/><stop stop-opacity="1" stop-color="rgb(28.318787%, 55.871582%, 78.274536%)" offset="0.421875"/><stop stop-opacity="1" stop-color="rgb(28.181458%, 56.069946%, 78.384399%)" offset="0.4375"/><stop stop-opacity="1" stop-color="rgb(28.044128%, 56.268311%, 78.495789%)" offset="0.453125"/><stop stop-opacity="1" stop-color="rgb(27.906799%, 56.466675%, 78.605652%)" offset="0.46875"/><stop stop-opacity="1" stop-color="rgb(27.767944%, 56.665039%, 78.715515%)" offset="0.484375"/><stop stop-opacity="1" stop-color="rgb(27.630615%, 56.863403%, 78.825378%)" offset="0.5"/><stop stop-opacity="1" stop-color="rgb(27.493286%, 57.061768%, 78.936768%)" offset="0.515625"/><stop stop-opacity="1" stop-color="rgb(27.355957%, 57.260132%, 79.046631%)" offset="0.53125"/><stop stop-opacity="1" stop-color="rgb(27.217102%, 57.45697%, 79.156494%)" offset="0.546875"/><stop stop-opacity="1" stop-color="rgb(27.079773%, 57.655334%, 79.267883%)" offset="0.5625"/><stop stop-opacity="1" stop-color="rgb(26.942444%, 57.853699%, 79.377747%)" offset="0.578125"/><stop stop-opacity="1" stop-color="rgb(26.805115%, 58.052063%, 79.48761%)" offset="0.59375"/><stop stop-opacity="1" stop-color="rgb(26.667786%, 58.250427%, 79.597473%)" offset="0.609375"/><stop stop-opacity="1" stop-color="rgb(26.528931%, 58.448792%, 79.708862%)" offset="0.625"/><stop stop-opacity="1" stop-color="rgb(26.391602%, 58.647156%, 79.818726%)" offset="0.637077"/><stop stop-opacity="1" stop-color="rgb(26.322937%, 58.746338%, 79.873657%)" offset="0.640625"/><stop stop-opacity="1" stop-color="rgb(26.254272%, 58.84552%, 79.928589%)" offset="0.65625"/><stop stop-opacity="1" stop-color="rgb(26.116943%, 59.043884%, 80.038452%)" offset="0.671875"/><stop stop-opacity="1" stop-color="rgb(25.978088%, 59.242249%, 80.149841%)" offset="0.6875"/><stop stop-opacity="1" stop-color="rgb(25.840759%, 59.439087%, 80.259705%)" offset="0.703125"/><stop stop-opacity="1" stop-color="rgb(25.70343%, 59.637451%, 80.369568%)" offset="0.71875"/><stop stop-opacity="1" stop-color="rgb(25.566101%, 59.835815%, 80.480957%)" offset="0.734375"/><stop stop-opacity="1" stop-color="rgb(25.428772%, 60.03418%, 80.59082%)" offset="0.75"/><stop stop-opacity="1" stop-color="rgb(25.289917%, 60.232544%, 80.700684%)" offset="0.765625"/><stop stop-opacity="1" stop-color="rgb(25.152588%, 60.430908%, 80.810547%)" offset="0.78125"/><stop stop-opacity="1" stop-color="rgb(25.015259%, 60.629272%, 80.921936%)" offset="0.796875"/><stop stop-opacity="1" stop-color="rgb(24.87793%, 60.827637%, 81.031799%)" offset="0.8125"/><stop stop-opacity="1" stop-color="rgb(24.739075%, 61.026001%, 81.141663%)" offset="0.828125"/><stop stop-opacity="1" stop-color="rgb(24.601746%, 61.224365%, 81.253052%)" offset="0.84375"/><stop stop-opacity="1" stop-color="rgb(24.464417%, 61.421204%, 81.362915%)" offset="0.859375"/><stop stop-opacity="1" stop-color="rgb(24.327087%, 61.619568%, 81.472778%)" offset="0.875"/><stop stop-opacity="1" stop-color="rgb(24.189758%, 61.817932%, 81.582642%)" offset="0.890625"/><stop stop-opacity="1" stop-color="rgb(24.050903%, 62.016296%, 81.694031%)" offset="0.90625"/><stop stop-opacity="1" stop-color="rgb(23.913574%, 62.214661%, 81.803894%)" offset="0.921875"/><stop stop-opacity="1" stop-color="rgb(23.776245%, 62.413025%, 81.913757%)" offset="0.9375"/><stop stop-opacity="1" stop-color="rgb(23.638916%, 62.611389%, 82.023621%)" offset="0.953125"/><stop stop-opacity="1" stop-color="rgb(23.500061%, 62.809753%, 82.13501%)" offset="0.96875"/><stop stop-opacity="1" stop-color="rgb(23.362732%, 63.008118%, 82.244873%)" offset="0.984375"/><stop stop-opacity="1" stop-color="rgb(23.225403%, 63.206482%, 82.354736%)" offset="1"/></linearGradient><clipPath id="79b371a497"><path d="M 193 343 L 207 343 L 207 375 L 193 375 Z M 193 343 " clip-rule="nonzero"/></clipPath><clipPath id="d87d93c278"><path d="M 200 343.75 C 196.542969 343.75 193.75 346.550781 193.75 350 L 193.75 368.75 C 193.75 372.199219 196.542969 375 200 375 C 203.457031 375 206.25 372.199219 206.25 368.75 L 206.25 350 C 206.25 346.550781 203.457031 343.75 200 343.75 Z M 200 343.75 " clip-rule="nonzero"/></clipPath><linearGradient x1="32.251424" gradientTransform="matrix(6.249999, 0, 0, 6.249999, -12.499994, -12.5)" y1="57.746284" x2="35.748344" gradientUnits="userSpaceOnUse" y2="61.25395" id="0186dd580c"><stop stop-opacity="1" stop-color="rgb(28.759766%, 55.238342%, 77.922058%)" offset="0"/><stop stop-opacity="1" stop-color="rgb(28.671265%, 55.36499%, 77.992249%)" offset="0.0625"/><stop stop-opacity="1" stop-color="rgb(28.495789%, 55.61676%, 78.132629%)" offset="0.125"/><stop stop-opacity="1" stop-color="rgb(28.320312%, 55.86853%, 78.27301%)" offset="0.1875"/><stop stop-opacity="1" stop-color="rgb(28.144836%, 56.121826%, 78.413391%)" offset="0.25"/><stop stop-opacity="1" stop-color="rgb(27.96936%, 56.373596%, 78.553772%)" offset="0.285089"/><stop stop-opacity="1" stop-color="rgb(27.882385%, 56.500244%, 78.623962%)" offset="0.3125"/><stop stop-opacity="1" stop-color="rgb(27.793884%, 56.626892%, 78.694153%)" offset="0.375"/><stop stop-opacity="1" stop-color="rgb(27.619934%, 56.878662%, 78.834534%)" offset="0.4375"/><stop stop-opacity="1" stop-color="rgb(27.444458%, 57.130432%, 78.974915%)" offset="0.5"/><stop stop-opacity="1" stop-color="rgb(27.268982%, 57.383728%, 79.115295%)" offset="0.5625"/><stop stop-opacity="1" stop-color="rgb(27.093506%, 57.635498%, 79.255676%)" offset="0.625"/><stop stop-opacity="1" stop-color="rgb(26.91803%, 57.887268%, 79.396057%)" offset="0.6875"/><stop stop-opacity="1" stop-color="rgb(26.742554%, 58.140564%, 79.536438%)" offset="0.714911"/><stop stop-opacity="1" stop-color="rgb(26.655579%, 58.267212%, 79.606628%)" offset="0.75"/><stop stop-opacity="1" stop-color="rgb(26.567078%, 58.392334%, 79.676819%)" offset="0.8125"/><stop stop-opacity="1" stop-color="rgb(26.393127%, 58.64563%, 79.8172%)" offset="0.875"/><stop stop-opacity="1" stop-color="rgb(26.217651%, 58.8974%, 79.957581%)" offset="0.9375"/><stop stop-opacity="1" stop-color="rgb(26.042175%, 59.14917%, 80.097961%)" offset="1"/></linearGradient><clipPath id="dc5ff131b5"><path d="M 356.25 168.75 C 348.113281 168.75 341.238281 173.992188 338.648438 181.25 L 309.175781 181.25 L 279.800781 146 C 278.613281 144.574219 276.855469 143.75 275 143.75 L 250 143.75 L 250 125 L 284.914062 125 L 301.832031 141.917969 C 303 143.09375 304.585938 143.75 306.25 143.75 L 326.148438 143.75 C 328.738281 151.007812 335.613281 156.25 343.75 156.25 C 354.085938 156.25 362.5 147.835938 362.5 137.5 C 362.5 127.164062 354.085938 118.75 343.75 118.75 C 335.613281 118.75 328.738281 123.992188 326.148438 131.25 L 308.835938 131.25 L 291.917969 114.332031 C 290.75 113.15625 289.164062 112.5 287.5 112.5 L 250 112.5 L 250 93.75 L 275 93.75 C 277.085938 93.75 279.039062 92.707031 280.199219 90.96875 L 288.46875 78.5625 L 308.082031 98.175781 C 309.25 99.34375 310.835938 100 312.5 100 L 362.5 100 C 365.957031 100 368.75 97.199219 368.75 93.75 C 368.75 90.300781 365.957031 87.5 362.5 87.5 L 315.085938 87.5 L 295.542969 67.957031 L 303.34375 56.25 L 313.648438 56.25 C 316.238281 63.507812 323.113281 68.75 331.25 68.75 C 341.585938 68.75 350 60.335938 350 50 C 350 39.664062 341.585938 31.25 331.25 31.25 C 323.113281 31.25 316.238281 36.492188 313.648438 43.75 L 300 43.75 C 297.914062 43.75 295.960938 44.792969 294.800781 46.53125 L 271.65625 81.25 L 250 81.25 L 250 75 C 250 71.550781 247.207031 68.75 243.75 68.75 L 231.25 68.75 L 231.25 52.585938 L 248.167969 35.667969 C 249.34375 34.5 250 32.90625 250 31.25 L 250 6.25 C 250 2.800781 247.207031 0 243.75 0 C 240.292969 0 237.5 2.800781 237.5 6.25 L 237.5 28.664062 L 220.582031 45.582031 C 219.40625 46.75 218.75 48.34375 218.75 50 L 218.75 68.75 L 206.25 68.75 L 206.25 43.75 C 206.25 41.851562 205.386719 40.054688 203.90625 38.867188 L 172.65625 13.867188 C 171.542969 12.980469 170.175781 12.5 168.75 12.5 L 105.101562 12.5 C 102.511719 5.242188 95.636719 0 87.5 0 C 77.164062 0 68.75 8.414062 68.75 18.75 C 68.75 29.085938 77.164062 37.5 87.5 37.5 C 95.636719 37.5 102.511719 32.257812 105.101562 25 L 122.414062 25 L 97.414062 50 L 56.25 50 C 52.792969 50 50 52.800781 50 56.25 C 50 59.699219 52.792969 62.5 56.25 62.5 L 100 62.5 C 101.664062 62.5 103.25 61.84375 104.417969 60.667969 L 140.085938 25 L 166.554688 25 L 193.75 46.75 L 193.75 68.75 L 181.25 68.75 L 181.25 56.25 C 181.25 52.800781 178.457031 50 175 50 C 134.273438 50 99.632812 76.148438 86.71875 112.5 L 67.007812 112.5 L 62.179688 98.023438 C 61.324219 95.46875 58.945312 93.75 56.25 93.75 L 31.25 93.75 C 27.792969 93.75 25 96.550781 25 100 C 25 103.449219 27.792969 106.25 31.25 106.25 L 51.742188 106.25 L 56.570312 120.726562 C 57.417969 123.28125 59.804688 125 62.5 125 L 83.136719 125 C 82.113281 130.023438 81.59375 135.226562 81.414062 140.507812 L 60.417969 156.25 L 36.351562 156.25 C 33.761719 148.992188 26.886719 143.75 18.75 143.75 C 8.414062 143.75 0 152.164062 0 162.5 C 0 172.835938 8.414062 181.25 18.75 181.25 C 26.886719 181.25 33.761719 176.007812 36.351562 168.75 L 62.5 168.75 C 63.855469 168.75 65.167969 168.3125 66.25 167.5 L 85.261719 153.242188 L 86.84375 156.40625 L 63.039062 209.960938 C 62.324219 211.574219 62.324219 213.414062 63.03125 215.023438 C 63.742188 216.636719 65.101562 217.875 66.773438 218.429688 L 81.25 223.257812 L 81.25 225 C 81.25 228.132812 81.53125 231.195312 81.945312 234.21875 L 59.914062 256.25 L 36.351562 256.25 C 33.761719 248.992188 26.886719 243.75 18.75 243.75 C 8.414062 243.75 0 252.164062 0 262.5 C 0 272.835938 8.414062 281.25 18.75 281.25 C 26.886719 281.25 33.761719 276.007812 36.351562 268.75 L 62.5 268.75 C 64.164062 268.75 65.75 268.09375 66.917969 266.917969 L 85.4375 248.398438 C 87.664062 254.523438 90.726562 260.238281 94.5 265.414062 L 45.582031 314.332031 C 44.40625 315.5 43.75 317.09375 43.75 318.75 L 43.75 338.648438 C 36.492188 341.238281 31.25 348.113281 31.25 356.25 C 31.25 366.585938 39.664062 375 50 375 C 60.335938 375 68.75 366.585938 68.75 356.25 C 68.75 348.113281 63.507812 341.238281 56.25 338.648438 L 56.25 321.335938 L 102.761719 274.824219 C 113.667969 285.175781 127.925781 292 143.75 293.4375 L 143.75 293.75 C 143.75 306.367188 136.179688 317.550781 124.46875 322.230469 L 108.394531 328.664062 C 91.898438 335.257812 81.25 350.992188 81.25 368.75 C 81.25 372.199219 84.042969 375 87.5 375 C 90.957031 375 93.75 372.199219 93.75 368.75 C 93.75 356.132812 101.320312 344.949219 113.03125 340.269531 L 129.105469 333.835938 C 145.601562 327.242188 156.25 311.507812 156.25 293.75 L 156.25 293.429688 C 191.800781 291.570312 223.210938 274.070312 243.75 247.617188 L 243.75 297.789062 C 243.75 313.101562 252.257812 326.867188 265.957031 333.71875 C 275.386719 338.429688 281.25 347.917969 281.25 358.460938 L 281.25 368.75 C 281.25 372.199219 284.042969 375 287.5 375 C 290.957031 375 293.75 372.199219 293.75 368.75 L 293.75 358.460938 C 293.75 343.148438 285.242188 329.382812 271.542969 322.53125 C 262.105469 317.820312 256.25 308.332031 256.25 297.789062 L 256.25 227.710938 C 258.101562 224.007812 259.742188 220.195312 261.199219 216.273438 L 275 227.90625 L 275 262.5 C 275 265.054688 276.554688 267.351562 278.929688 268.304688 L 306.25 279.230469 L 306.25 294.898438 C 298.992188 297.488281 293.75 304.363281 293.75 312.5 C 293.75 322.835938 302.164062 331.25 312.5 331.25 C 322.835938 331.25 331.25 322.835938 331.25 312.5 C 331.25 304.363281 326.007812 297.488281 318.75 294.898438 L 318.75 275 C 318.75 272.445312 317.195312 270.148438 314.820312 269.195312 L 287.5 258.269531 L 287.5 225 C 287.5 223.15625 286.6875 221.40625 285.28125 220.21875 L 265.199219 203.300781 C 267.429688 194.210938 268.75 184.769531 268.75 175 C 268.75 171.550781 265.957031 168.75 262.5 168.75 L 250 168.75 L 250 156.25 L 272.070312 156.25 L 301.445312 191.5 C 302.636719 192.925781 304.394531 193.75 306.25 193.75 L 338.648438 193.75 C 341.238281 201.007812 348.113281 206.25 356.25 206.25 C 366.585938 206.25 375 197.835938 375 187.5 C 375 177.164062 366.585938 168.75 356.25 168.75 Z M 343.75 131.25 C 347.199219 131.25 350 134.054688 350 137.5 C 350 140.945312 347.199219 143.75 343.75 143.75 C 340.300781 143.75 337.5 140.945312 337.5 137.5 C 337.5 134.054688 340.300781 131.25 343.75 131.25 Z M 331.25 43.75 C 334.699219 43.75 337.5 46.554688 337.5 50 C 337.5 53.445312 334.699219 56.25 331.25 56.25 C 327.800781 56.25 325 53.445312 325 50 C 325 46.554688 327.800781 43.75 331.25 43.75 Z M 87.5 25 C 84.050781 25 81.25 22.195312 81.25 18.75 C 81.25 15.304688 84.050781 12.5 87.5 12.5 C 90.949219 12.5 93.75 15.304688 93.75 18.75 C 93.75 22.195312 90.949219 25 87.5 25 Z M 18.75 168.75 C 15.300781 168.75 12.5 165.945312 12.5 162.5 C 12.5 159.054688 15.300781 156.25 18.75 156.25 C 22.199219 156.25 25 159.054688 25 162.5 C 25 165.945312 22.199219 168.75 18.75 168.75 Z M 18.75 268.75 C 15.300781 268.75 12.5 265.945312 12.5 262.5 C 12.5 259.054688 15.300781 256.25 18.75 256.25 C 22.199219 256.25 25 259.054688 25 262.5 C 25 265.945312 22.199219 268.75 18.75 268.75 Z M 50 362.5 C 46.550781 362.5 43.75 359.695312 43.75 356.25 C 43.75 352.804688 46.550781 350 50 350 C 53.449219 350 56.25 352.804688 56.25 356.25 C 56.25 359.695312 53.449219 362.5 50 362.5 Z M 312.5 318.75 C 309.050781 318.75 306.25 315.945312 306.25 312.5 C 306.25 309.054688 309.050781 306.25 312.5 306.25 C 315.949219 306.25 318.75 309.054688 318.75 312.5 C 318.75 315.945312 315.949219 318.75 312.5 318.75 Z M 181.25 112.5 L 206.25 112.5 L 206.25 137.5 L 181.25 137.5 Z M 231.25 243.269531 L 231.25 225 C 231.25 221.550781 228.457031 218.75 225 218.75 C 221.542969 218.75 218.75 221.550781 218.75 225 L 218.75 255.800781 C 212.980469 260.71875 206.730469 265.070312 200 268.675781 L 200 225 C 200 222.304688 198.28125 219.917969 195.726562 219.070312 L 181.25 214.242188 L 181.25 193.75 C 181.25 190.300781 178.457031 187.5 175 187.5 C 171.542969 187.5 168.75 190.300781 168.75 193.75 L 168.75 218.75 C 168.75 221.445312 170.46875 223.832031 173.023438 224.679688 L 187.5 229.507812 L 187.5 274.320312 C 181.488281 276.601562 175.226562 278.355469 168.75 279.519531 L 168.75 243.75 C 168.75 241.195312 167.195312 238.894531 164.820312 237.945312 L 137.5 227.019531 L 137.5 167.601562 C 144.757812 165.011719 150 158.136719 150 150 C 150 139.664062 141.585938 131.25 131.25 131.25 C 120.914062 131.25 112.5 139.664062 112.5 150 C 112.5 158.136719 117.742188 165.011719 125 167.601562 L 125 231.25 C 125 233.804688 126.554688 236.105469 128.929688 237.054688 L 156.25 247.980469 L 156.25 280.945312 C 154.167969 281.070312 152.105469 281.25 150 281.25 C 118.980469 281.25 93.75 256.011719 93.75 225 L 93.75 218.75 C 93.75 216.054688 92.03125 213.667969 89.476562 212.820312 L 77.257812 208.742188 L 99.460938 158.789062 C 100.21875 157.082031 100.175781 155.125 99.335938 153.449219 L 93.757812 142.292969 C 94.5 100.261719 127.332031 65.898438 168.75 62.738281 L 168.75 143.75 C 168.75 145.605469 169.574219 147.363281 170.992188 148.550781 L 208.492188 179.800781 C 209.617188 180.738281 211.039062 181.25 212.5 181.25 L 256.070312 181.25 C 254.695312 204.804688 245.550781 226.273438 231.25 243.269531 Z M 125 150 C 125 146.554688 127.800781 143.75 131.25 143.75 C 134.699219 143.75 137.5 146.554688 137.5 150 C 137.5 153.445312 134.699219 156.25 131.25 156.25 C 127.800781 156.25 125 153.445312 125 150 Z M 214.761719 168.75 L 192.261719 150 L 212.5 150 C 215.957031 150 218.75 147.199219 218.75 143.75 L 218.75 106.25 C 218.75 102.800781 215.957031 100 212.5 100 L 181.25 100 L 181.25 81.25 L 237.5 81.25 L 237.5 168.75 Z M 356.25 193.75 C 352.800781 193.75 350 190.945312 350 187.5 C 350 184.054688 352.800781 181.25 356.25 181.25 C 359.699219 181.25 362.5 184.054688 362.5 187.5 C 362.5 190.945312 359.699219 193.75 356.25 193.75 Z M 356.25 193.75 " clip-rule="nonzero"/></clipPath><linearGradient x1="1.046626" gradientTransform="matrix(6.249999, 0, 0, 6.249999, -12.499994, -12.5)" y1="2.950468" x2="60.95491" gradientUnits="userSpaceOnUse" y2="63.041907" id="a6897adecc"><stop stop-opacity="1" stop-color="rgb(56.498718%, 15.299988%, 55.699158%)" offset="0"/><stop stop-opacity="1" stop-color="rgb(56.498718%, 15.299988%, 55.699158%)" offset="0.125"/><stop stop-opacity="1" stop-color="rgb(56.472778%, 15.338135%, 55.72052%)" offset="0.140625"/><stop stop-opacity="1" stop-color="rgb(56.259155%, 15.646362%, 55.891418%)" offset="0.144531"/><stop stop-opacity="1" stop-color="rgb(56.071472%, 15.916443%, 56.04248%)" offset="0.148437"/><stop stop-opacity="1" stop-color="rgb(55.883789%, 16.186523%, 56.192017%)" offset="0.152344"/><stop stop-opacity="1" stop-color="rgb(55.696106%, 16.456604%, 56.343079%)" offset="0.15625"/><stop stop-opacity="1" stop-color="rgb(55.508423%, 16.726685%, 56.492615%)" offset="0.160156"/><stop stop-opacity="1" stop-color="rgb(55.32074%, 16.996765%, 56.643677%)" offset="0.164062"/><stop stop-opacity="1" stop-color="rgb(55.133057%, 17.266846%, 56.793213%)" offset="0.167969"/><stop stop-opacity="1" stop-color="rgb(54.945374%, 17.536926%, 56.944275%)" offset="0.171875"/><stop stop-opacity="1" stop-color="rgb(54.75769%, 17.807007%, 57.093811%)" offset="0.175781"/><stop stop-opacity="1" stop-color="rgb(54.570007%, 18.077087%, 57.244873%)" offset="0.179687"/><stop stop-opacity="1" stop-color="rgb(54.382324%, 18.347168%, 57.394409%)" offset="0.183594"/><stop stop-opacity="1" stop-color="rgb(54.194641%, 18.617249%, 57.545471%)" offset="0.1875"/><stop stop-opacity="1" stop-color="rgb(54.006958%, 18.887329%, 57.695007%)" offset="0.191406"/><stop stop-opacity="1" stop-color="rgb(53.819275%, 19.15741%, 57.846069%)" offset="0.195312"/><stop stop-opacity="1" stop-color="rgb(53.631592%, 19.42749%, 57.995605%)" offset="0.199219"/><stop stop-opacity="1" stop-color="rgb(53.443909%, 19.699097%, 58.146667%)" offset="0.203125"/><stop stop-opacity="1" stop-color="rgb(53.256226%, 19.969177%, 58.296204%)" offset="0.207031"/><stop stop-opacity="1" stop-color="rgb(53.068542%, 20.239258%, 58.447266%)" offset="0.210937"/><stop stop-opacity="1" stop-color="rgb(52.880859%, 20.509338%, 58.596802%)" offset="0.214844"/><stop stop-opacity="1" stop-color="rgb(52.693176%, 20.779419%, 58.747864%)" offset="0.21875"/><stop stop-opacity="1" stop-color="rgb(52.505493%, 21.0495%, 58.8974%)" offset="0.222656"/><stop stop-opacity="1" stop-color="rgb(52.31781%, 21.31958%, 59.048462%)" offset="0.226562"/><stop stop-opacity="1" stop-color="rgb(52.130127%, 21.589661%, 59.197998%)" offset="0.230469"/><stop stop-opacity="1" stop-color="rgb(51.942444%, 21.859741%, 59.34906%)" offset="0.234375"/><stop stop-opacity="1" stop-color="rgb(51.754761%, 22.129822%, 59.498596%)" offset="0.238281"/><stop stop-opacity="1" stop-color="rgb(51.567078%, 22.399902%, 59.649658%)" offset="0.242187"/><stop stop-opacity="1" stop-color="rgb(51.379395%, 22.669983%, 59.80072%)" offset="0.246094"/><stop stop-opacity="1" stop-color="rgb(51.191711%, 22.940063%, 59.951782%)" offset="0.25"/><stop stop-opacity="1" stop-color="rgb(51.004028%, 23.210144%, 60.101318%)" offset="0.253906"/><stop stop-opacity="1" stop-color="rgb(50.816345%, 23.480225%, 60.25238%)" offset="0.257813"/><stop stop-opacity="1" stop-color="rgb(50.628662%, 23.750305%, 60.401917%)" offset="0.261719"/><stop stop-opacity="1" stop-color="rgb(50.440979%, 24.021912%, 60.552979%)" offset="0.265625"/><stop stop-opacity="1" stop-color="rgb(50.253296%, 24.291992%, 60.702515%)" offset="0.269531"/><stop stop-opacity="1" stop-color="rgb(50.065613%, 24.562073%, 60.853577%)" offset="0.273438"/><stop stop-opacity="1" stop-color="rgb(49.87793%, 24.832153%, 61.003113%)" offset="0.277344"/><stop stop-opacity="1" stop-color="rgb(49.690247%, 25.102234%, 61.154175%)" offset="0.28125"/><stop stop-opacity="1" stop-color="rgb(49.502563%, 25.372314%, 61.303711%)" offset="0.285156"/><stop stop-opacity="1" stop-color="rgb(49.31488%, 25.642395%, 61.454773%)" offset="0.289062"/><stop stop-opacity="1" stop-color="rgb(49.127197%, 25.912476%, 61.604309%)" offset="0.292969"/><stop stop-opacity="1" stop-color="rgb(48.939514%, 26.182556%, 61.755371%)" offset="0.296875"/><stop stop-opacity="1" stop-color="rgb(48.751831%, 26.452637%, 61.904907%)" offset="0.300781"/><stop stop-opacity="1" stop-color="rgb(48.564148%, 26.722717%, 62.055969%)" offset="0.304688"/><stop stop-opacity="1" stop-color="rgb(48.376465%, 26.992798%, 62.205505%)" offset="0.308594"/><stop stop-opacity="1" stop-color="rgb(48.188782%, 27.262878%, 62.356567%)" offset="0.3125"/><stop stop-opacity="1" stop-color="rgb(48.001099%, 27.532959%, 62.506104%)" offset="0.316406"/><stop stop-opacity="1" stop-color="rgb(47.813416%, 27.804565%, 62.657166%)" offset="0.320312"/><stop stop-opacity="1" stop-color="rgb(47.625732%, 28.074646%, 62.806702%)" offset="0.324219"/><stop stop-opacity="1" stop-color="rgb(47.439575%, 28.344727%, 62.957764%)" offset="0.328125"/><stop stop-opacity="1" stop-color="rgb(47.251892%, 28.614807%, 63.1073%)" offset="0.332031"/><stop stop-opacity="1" stop-color="rgb(47.064209%, 28.884888%, 63.258362%)" offset="0.335938"/><stop stop-opacity="1" stop-color="rgb(46.876526%, 29.154968%, 63.407898%)" offset="0.339844"/><stop stop-opacity="1" stop-color="rgb(46.688843%, 29.425049%, 63.55896%)" offset="0.34375"/><stop stop-opacity="1" stop-color="rgb(46.50116%, 29.695129%, 63.708496%)" offset="0.347656"/><stop stop-opacity="1" stop-color="rgb(46.313477%, 29.96521%, 63.859558%)" offset="0.351562"/><stop stop-opacity="1" stop-color="rgb(46.125793%, 30.235291%, 64.009094%)" offset="0.355469"/><stop stop-opacity="1" stop-color="rgb(45.93811%, 30.505371%, 64.160156%)" offset="0.359375"/><stop stop-opacity="1" stop-color="rgb(45.750427%, 30.775452%, 64.309692%)" offset="0.363281"/><stop stop-opacity="1" stop-color="rgb(45.562744%, 31.045532%, 64.460754%)" offset="0.367188"/><stop stop-opacity="1" stop-color="rgb(45.375061%, 31.315613%, 64.610291%)" offset="0.371094"/><stop stop-opacity="1" stop-color="rgb(45.187378%, 31.585693%, 64.761353%)" offset="0.375"/><stop stop-opacity="1" stop-color="rgb(44.999695%, 31.855774%, 64.910889%)" offset="0.378906"/><stop stop-opacity="1" stop-color="rgb(44.812012%, 32.12738%, 65.061951%)" offset="0.382812"/><stop stop-opacity="1" stop-color="rgb(44.624329%, 32.397461%, 65.211487%)" offset="0.386719"/><stop stop-opacity="1" stop-color="rgb(44.436646%, 32.667542%, 65.362549%)" offset="0.390625"/><stop stop-opacity="1" stop-color="rgb(44.248962%, 32.937622%, 65.512085%)" offset="0.394531"/><stop stop-opacity="1" stop-color="rgb(44.061279%, 33.207703%, 65.663147%)" offset="0.398438"/><stop stop-opacity="1" stop-color="rgb(43.873596%, 33.477783%, 65.812683%)" offset="0.402344"/><stop stop-opacity="1" stop-color="rgb(43.685913%, 33.747864%, 65.963745%)" offset="0.40625"/><stop stop-opacity="1" stop-color="rgb(43.49823%, 34.017944%, 66.113281%)" offset="0.410156"/><stop stop-opacity="1" stop-color="rgb(43.310547%, 34.288025%, 66.264343%)" offset="0.414062"/><stop stop-opacity="1" stop-color="rgb(43.122864%, 34.558105%, 66.413879%)" offset="0.417969"/><stop stop-opacity="1" stop-color="rgb(42.935181%, 34.828186%, 66.564941%)" offset="0.421875"/><stop stop-opacity="1" stop-color="rgb(42.747498%, 35.098267%, 66.716003%)" offset="0.425781"/><stop stop-opacity="1" stop-color="rgb(42.559814%, 35.368347%, 66.867065%)" offset="0.429688"/><stop stop-opacity="1" stop-color="rgb(42.372131%, 35.638428%, 67.016602%)" offset="0.433594"/><stop stop-opacity="1" stop-color="rgb(42.184448%, 35.908508%, 67.167664%)" offset="0.4375"/><stop stop-opacity="1" stop-color="rgb(41.996765%, 36.178589%, 67.3172%)" offset="0.441406"/><stop stop-opacity="1" stop-color="rgb(41.809082%, 36.450195%, 67.468262%)" offset="0.445312"/><stop stop-opacity="1" stop-color="rgb(41.621399%, 36.720276%, 67.617798%)" offset="0.449219"/><stop stop-opacity="1" stop-color="rgb(41.433716%, 36.990356%, 67.76886%)" offset="0.453125"/><stop stop-opacity="1" stop-color="rgb(41.246033%, 37.260437%, 67.918396%)" offset="0.457031"/><stop stop-opacity="1" stop-color="rgb(41.05835%, 37.530518%, 68.069458%)" offset="0.460938"/><stop stop-opacity="1" stop-color="rgb(40.870667%, 37.800598%, 68.218994%)" offset="0.464844"/><stop stop-opacity="1" stop-color="rgb(40.682983%, 38.070679%, 68.370056%)" offset="0.46875"/><stop stop-opacity="1" stop-color="rgb(40.4953%, 38.340759%, 68.519592%)" offset="0.472656"/><stop stop-opacity="1" stop-color="rgb(40.307617%, 38.61084%, 68.670654%)" offset="0.476562"/><stop stop-opacity="1" stop-color="rgb(40.119934%, 38.88092%, 68.82019%)" offset="0.480469"/><stop stop-opacity="1" stop-color="rgb(39.932251%, 39.151001%, 68.971252%)" offset="0.484375"/><stop stop-opacity="1" stop-color="rgb(39.744568%, 39.421082%, 69.120789%)" offset="0.488281"/><stop stop-opacity="1" stop-color="rgb(39.556885%, 39.691162%, 69.271851%)" offset="0.492188"/><stop stop-opacity="1" stop-color="rgb(39.369202%, 39.961243%, 69.421387%)" offset="0.496094"/><stop stop-opacity="1" stop-color="rgb(39.181519%, 40.231323%, 69.572449%)" offset="0.5"/><stop stop-opacity="1" stop-color="rgb(38.993835%, 40.501404%, 69.721985%)" offset="0.503906"/><stop stop-opacity="1" stop-color="rgb(38.806152%, 40.77301%, 69.873047%)" offset="0.507812"/><stop stop-opacity="1" stop-color="rgb(38.618469%, 41.043091%, 70.022583%)" offset="0.511719"/><stop stop-opacity="1" stop-color="rgb(38.430786%, 41.313171%, 70.173645%)" offset="0.515625"/><stop stop-opacity="1" stop-color="rgb(38.243103%, 41.583252%, 70.323181%)" offset="0.519531"/><stop stop-opacity="1" stop-color="rgb(38.056946%, 41.853333%, 70.474243%)" offset="0.523438"/><stop stop-opacity="1" stop-color="rgb(37.869263%, 42.123413%, 70.623779%)" offset="0.527344"/><stop stop-opacity="1" stop-color="rgb(37.68158%, 42.393494%, 70.774841%)" offset="0.53125"/><stop stop-opacity="1" stop-color="rgb(37.493896%, 42.663574%, 70.924377%)" offset="0.535156"/><stop stop-opacity="1" stop-color="rgb(37.306213%, 42.933655%, 71.075439%)" offset="0.539062"/><stop stop-opacity="1" stop-color="rgb(37.11853%, 43.203735%, 71.224976%)" offset="0.542969"/><stop stop-opacity="1" stop-color="rgb(36.930847%, 43.473816%, 71.376038%)" offset="0.546875"/><stop stop-opacity="1" stop-color="rgb(36.743164%, 43.743896%, 71.525574%)" offset="0.550781"/><stop stop-opacity="1" stop-color="rgb(36.555481%, 44.013977%, 71.676636%)" offset="0.554688"/><stop stop-opacity="1" stop-color="rgb(36.367798%, 44.284058%, 71.826172%)" offset="0.558594"/><stop stop-opacity="1" stop-color="rgb(36.180115%, 44.554138%, 71.977234%)" offset="0.5625"/><stop stop-opacity="1" stop-color="rgb(35.992432%, 44.824219%, 72.12677%)" offset="0.566406"/><stop stop-opacity="1" stop-color="rgb(35.804749%, 45.095825%, 72.277832%)" offset="0.570312"/><stop stop-opacity="1" stop-color="rgb(35.617065%, 45.365906%, 72.427368%)" offset="0.574219"/><stop stop-opacity="1" stop-color="rgb(35.429382%, 45.635986%, 72.57843%)" offset="0.578125"/><stop stop-opacity="1" stop-color="rgb(35.241699%, 45.906067%, 72.727966%)" offset="0.582031"/><stop stop-opacity="1" stop-color="rgb(35.054016%, 46.176147%, 72.879028%)" offset="0.585938"/><stop stop-opacity="1" stop-color="rgb(34.866333%, 46.446228%, 73.028564%)" offset="0.589844"/><stop stop-opacity="1" stop-color="rgb(34.67865%, 46.716309%, 73.179626%)" offset="0.59375"/><stop stop-opacity="1" stop-color="rgb(34.490967%, 46.986389%, 73.329163%)" offset="0.597656"/><stop stop-opacity="1" stop-color="rgb(34.303284%, 47.25647%, 73.480225%)" offset="0.601562"/><stop stop-opacity="1" stop-color="rgb(34.115601%, 47.52655%, 73.631287%)" offset="0.605469"/><stop stop-opacity="1" stop-color="rgb(33.927917%, 47.796631%, 73.782349%)" offset="0.609375"/><stop stop-opacity="1" stop-color="rgb(33.740234%, 48.066711%, 73.931885%)" offset="0.613281"/><stop stop-opacity="1" stop-color="rgb(33.552551%, 48.336792%, 74.082947%)" offset="0.617188"/><stop stop-opacity="1" stop-color="rgb(33.364868%, 48.606873%, 74.232483%)" offset="0.621094"/><stop stop-opacity="1" stop-color="rgb(33.177185%, 48.876953%, 74.383545%)" offset="0.625"/><stop stop-opacity="1" stop-color="rgb(32.989502%, 49.147034%, 74.533081%)" offset="0.628906"/><stop stop-opacity="1" stop-color="rgb(32.801819%, 49.41864%, 74.684143%)" offset="0.632812"/><stop stop-opacity="1" stop-color="rgb(32.614136%, 49.688721%, 74.833679%)" offset="0.636719"/><stop stop-opacity="1" stop-color="rgb(32.426453%, 49.958801%, 74.984741%)" offset="0.640625"/><stop stop-opacity="1" stop-color="rgb(32.23877%, 50.228882%, 75.134277%)" offset="0.644531"/><stop stop-opacity="1" stop-color="rgb(32.051086%, 50.498962%, 75.285339%)" offset="0.648438"/><stop stop-opacity="1" stop-color="rgb(31.863403%, 50.769043%, 75.434875%)" offset="0.652344"/><stop stop-opacity="1" stop-color="rgb(31.67572%, 51.039124%, 75.585938%)" offset="0.65625"/><stop stop-opacity="1" stop-color="rgb(31.488037%, 51.309204%, 75.735474%)" offset="0.660156"/><stop stop-opacity="1" stop-color="rgb(31.300354%, 51.579285%, 75.886536%)" offset="0.664062"/><stop stop-opacity="1" stop-color="rgb(31.112671%, 51.849365%, 76.036072%)" offset="0.667969"/><stop stop-opacity="1" stop-color="rgb(30.924988%, 52.119446%, 76.187134%)" offset="0.671875"/><stop stop-opacity="1" stop-color="rgb(30.737305%, 52.389526%, 76.33667%)" offset="0.675781"/><stop stop-opacity="1" stop-color="rgb(30.549622%, 52.659607%, 76.487732%)" offset="0.679688"/><stop stop-opacity="1" stop-color="rgb(30.361938%, 52.929688%, 76.637268%)" offset="0.683594"/><stop stop-opacity="1" stop-color="rgb(30.174255%, 53.199768%, 76.78833%)" offset="0.6875"/><stop stop-opacity="1" stop-color="rgb(29.986572%, 53.469849%, 76.937866%)" offset="0.691406"/><stop stop-opacity="1" stop-color="rgb(29.798889%, 53.741455%, 77.088928%)" offset="0.695312"/><stop stop-opacity="1" stop-color="rgb(29.611206%, 54.011536%, 77.238464%)" offset="0.699219"/><stop stop-opacity="1" stop-color="rgb(29.423523%, 54.281616%, 77.389526%)" offset="0.703125"/><stop stop-opacity="1" stop-color="rgb(29.23584%, 54.551697%, 77.539062%)" offset="0.707031"/><stop stop-opacity="1" stop-color="rgb(29.048157%, 54.821777%, 77.690125%)" offset="0.710938"/><stop stop-opacity="1" stop-color="rgb(28.860474%, 55.091858%, 77.839661%)" offset="0.714844"/><stop stop-opacity="1" stop-color="rgb(28.674316%, 55.361938%, 77.990723%)" offset="0.71875"/><stop stop-opacity="1" stop-color="rgb(28.486633%, 55.632019%, 78.140259%)" offset="0.722656"/><stop stop-opacity="1" stop-color="rgb(28.29895%, 55.9021%, 78.291321%)" offset="0.726562"/><stop stop-opacity="1" stop-color="rgb(28.111267%, 56.17218%, 78.440857%)" offset="0.730469"/><stop stop-opacity="1" stop-color="rgb(27.923584%, 56.442261%, 78.591919%)" offset="0.734375"/><stop stop-opacity="1" stop-color="rgb(27.735901%, 56.712341%, 78.741455%)" offset="0.738281"/><stop stop-opacity="1" stop-color="rgb(27.548218%, 56.982422%, 78.892517%)" offset="0.742188"/><stop stop-opacity="1" stop-color="rgb(27.360535%, 57.252502%, 79.042053%)" offset="0.746094"/><stop stop-opacity="1" stop-color="rgb(27.172852%, 57.524109%, 79.193115%)" offset="0.75"/><stop stop-opacity="1" stop-color="rgb(26.985168%, 57.794189%, 79.342651%)" offset="0.753906"/><stop stop-opacity="1" stop-color="rgb(26.797485%, 58.06427%, 79.493713%)" offset="0.757812"/><stop stop-opacity="1" stop-color="rgb(26.609802%, 58.334351%, 79.64325%)" offset="0.761719"/><stop stop-opacity="1" stop-color="rgb(26.422119%, 58.604431%, 79.794312%)" offset="0.765625"/><stop stop-opacity="1" stop-color="rgb(26.234436%, 58.874512%, 79.943848%)" offset="0.769531"/><stop stop-opacity="1" stop-color="rgb(26.046753%, 59.144592%, 80.09491%)" offset="0.773438"/><stop stop-opacity="1" stop-color="rgb(25.85907%, 59.414673%, 80.244446%)" offset="0.777344"/><stop stop-opacity="1" stop-color="rgb(25.671387%, 59.684753%, 80.395508%)" offset="0.78125"/><stop stop-opacity="1" stop-color="rgb(25.483704%, 59.954834%, 80.54657%)" offset="0.785156"/><stop stop-opacity="1" stop-color="rgb(25.296021%, 60.224915%, 80.697632%)" offset="0.789062"/><stop stop-opacity="1" stop-color="rgb(25.108337%, 60.494995%, 80.847168%)" offset="0.792969"/><stop stop-opacity="1" stop-color="rgb(24.920654%, 60.765076%, 80.99823%)" offset="0.796875"/><stop stop-opacity="1" stop-color="rgb(24.732971%, 61.035156%, 81.147766%)" offset="0.800781"/><stop stop-opacity="1" stop-color="rgb(24.545288%, 61.305237%, 81.298828%)" offset="0.804688"/><stop stop-opacity="1" stop-color="rgb(24.357605%, 61.575317%, 81.448364%)" offset="0.808594"/><stop stop-opacity="1" stop-color="rgb(24.169922%, 61.846924%, 81.599426%)" offset="0.8125"/><stop stop-opacity="1" stop-color="rgb(23.982239%, 62.117004%, 81.748962%)" offset="0.816406"/><stop stop-opacity="1" stop-color="rgb(23.794556%, 62.387085%, 81.900024%)" offset="0.820312"/><stop stop-opacity="1" stop-color="rgb(23.606873%, 62.657166%, 82.049561%)" offset="0.824219"/><stop stop-opacity="1" stop-color="rgb(23.419189%, 62.927246%, 82.200623%)" offset="0.828125"/><stop stop-opacity="1" stop-color="rgb(23.231506%, 63.197327%, 82.350159%)" offset="0.832031"/><stop stop-opacity="1" stop-color="rgb(23.043823%, 63.467407%, 82.501221%)" offset="0.835938"/><stop stop-opacity="1" stop-color="rgb(22.85614%, 63.737488%, 82.650757%)" offset="0.839844"/><stop stop-opacity="1" stop-color="rgb(22.668457%, 64.007568%, 82.801819%)" offset="0.84375"/><stop stop-opacity="1" stop-color="rgb(22.480774%, 64.277649%, 82.951355%)" offset="0.847656"/><stop stop-opacity="1" stop-color="rgb(22.293091%, 64.547729%, 83.102417%)" offset="0.851562"/><stop stop-opacity="1" stop-color="rgb(22.105408%, 64.81781%, 83.251953%)" offset="0.855469"/><stop stop-opacity="1" stop-color="rgb(21.917725%, 65.087891%, 83.403015%)" offset="0.859375"/><stop stop-opacity="1" stop-color="rgb(21.730042%, 65.357971%, 83.552551%)" offset="0.863281"/><stop stop-opacity="1" stop-color="rgb(21.542358%, 65.628052%, 83.703613%)" offset="0.867188"/><stop stop-opacity="1" stop-color="rgb(21.354675%, 65.898132%, 83.853149%)" offset="0.871094"/><stop stop-opacity="1" stop-color="rgb(21.166992%, 66.169739%, 84.004211%)" offset="0.875"/><stop stop-opacity="1" stop-color="rgb(20.982361%, 66.433716%, 84.150696%)" offset="0.878906"/><stop stop-opacity="1" stop-color="rgb(20.799255%, 66.699219%, 84.298706%)" offset="0.882813"/><stop stop-opacity="1" stop-color="rgb(20.799255%, 66.699219%, 84.298706%)" offset="0.890625"/><stop stop-opacity="1" stop-color="rgb(20.799255%, 66.699219%, 84.298706%)" offset="0.90625"/><stop stop-opacity="1" stop-color="rgb(20.799255%, 66.699219%, 84.298706%)" offset="0.9375"/><stop stop-opacity="1" stop-color="rgb(20.799255%, 66.699219%, 84.298706%)" offset="1"/></linearGradient></defs><g clip-path="url(#4fea5643f6)"><g clip-path="url(#818ca3aa44)"><path fill="url(#5371a7cc35)" d="M 143.75 312.5 L 143.75 375 L 181.25 375 L 181.25 312.5 Z M 143.75 312.5 " fill-rule="nonzero"/></g></g><g clip-path="url(#7c24b7e929)"><g clip-path="url(#c2c2d57b70)"><path fill="url(#b9843fb35c)" d="M 200 287.5 L 200 375 L 250 375 L 250 287.5 Z M 200 287.5 " fill-rule="nonzero"/></g></g><g clip-path="url(#79b371a497)"><g clip-path="url(#d87d93c278)"><path fill="url(#0186dd580c)" d="M 193.75 343.75 L 193.75 375 L 206.25 375 L 206.25 343.75 Z M 193.75 343.75 " fill-rule="nonzero"/></g></g><g clip-path="url(#dc5ff131b5)"><rect x="-37.5" fill="url(#a6897adecc)" width="450" y="-37.499999" height="449.999989"/></g></svg>