<svg xmlns="http://www.w3.org/2000/svg" xmlns:xlink="http://www.w3.org/1999/xlink" width="500" zoomAndPan="magnify" viewBox="0 0 375 374.999991" height="500" preserveAspectRatio="xMidYMid meet" version="1.0"><defs><clipPath id="d44c172e29"><path d="M 200 193.75 C 200 197.203125 197.203125 200 193.75 200 L 93.75 200 C 90.296875 200 87.5 197.203125 87.5 193.75 C 87.5 190.296875 90.296875 187.5 93.75 187.5 L 193.75 187.5 C 197.203125 187.5 200 190.296875 200 193.75 Z M 68.75 218.75 L 68.75 243.75 C 68.75 247.203125 65.953125 250 62.5 250 L 37.5 250 C 34.046875 250 31.25 247.203125 31.25 243.75 L 31.25 218.75 C 31.25 215.296875 34.046875 212.5 37.5 212.5 L 62.5 212.5 C 65.953125 212.5 68.75 215.296875 68.75 218.75 Z M 56.25 225 L 43.75 225 L 43.75 237.5 L 56.25 237.5 Z M 93.75 125 L 131.25 125 C 134.703125 125 137.5 122.203125 137.5 118.75 C 137.5 115.296875 134.703125 112.5 131.25 112.5 L 93.75 112.5 C 90.296875 112.5 87.5 115.296875 87.5 118.75 C 87.5 122.203125 90.296875 125 93.75 125 Z M 93.75 175 L 131.25 175 C 134.703125 175 137.5 172.203125 137.5 168.75 C 137.5 165.296875 134.703125 162.5 131.25 162.5 L 93.75 162.5 C 90.296875 162.5 87.5 165.296875 87.5 168.75 C 87.5 172.203125 90.296875 175 93.75 175 Z M 131.25 212.5 L 93.75 212.5 C 90.296875 212.5 87.5 215.296875 87.5 218.75 C 87.5 222.203125 90.296875 225 93.75 225 L 131.25 225 C 134.703125 225 137.5 222.203125 137.5 218.75 C 137.5 215.296875 134.703125 212.5 131.25 212.5 Z M 64.332031 114.332031 L 43.75 134.910156 L 35.667969 126.832031 C 33.226562 124.390625 29.273438 124.390625 26.832031 126.832031 C 24.390625 129.273438 24.390625 133.230469 26.832031 135.667969 L 39.332031 148.167969 C 40.550781 149.390625 42.148438 150 43.75 150 C 45.351562 150 46.949219 149.390625 48.167969 148.167969 L 73.167969 123.167969 C 75.609375 120.730469 75.609375 116.773438 73.167969 114.332031 C 70.726562 111.890625 66.773438 111.890625 64.332031 114.332031 Z M 64.332031 164.332031 L 43.75 184.910156 L 35.667969 176.832031 C 33.226562 174.390625 29.273438 174.390625 26.832031 176.832031 C 24.390625 179.273438 24.390625 183.230469 26.832031 185.667969 L 39.332031 198.167969 C 40.550781 199.390625 42.148438 200 43.75 200 C 45.351562 200 46.949219 199.390625 48.167969 198.167969 L 73.167969 173.167969 C 75.609375 170.730469 75.609375 166.773438 73.167969 164.332031 C 70.726562 161.890625 66.773438 161.890625 64.332031 164.332031 Z M 225 168.75 L 225 206.296875 C 240.679688 194.5 260.160156 187.5 281.25 187.5 C 332.945312 187.5 375 229.554688 375 281.25 C 375 332.945312 332.945312 375 281.25 375 C 256.113281 375 233.257812 365.054688 216.40625 348.894531 C 214.703125 349.613281 212.851562 350 210.9375 350 L 14.0625 350 C 6.308594 350 0 343.691406 0 335.9375 L 0 76.5625 C 0 68.808594 6.308594 62.5 14.0625 62.5 L 56.25 62.5 L 56.25 57.8125 C 56.25 50.058594 62.558594 43.75 70.3125 43.75 L 75 43.75 L 75 32.8125 C 75 25.058594 81.308594 18.75 89.0625 18.75 L 135.9375 18.75 C 143.691406 18.75 150 25.058594 150 32.8125 L 150 43.75 L 154.6875 43.75 C 162.441406 43.75 168.75 50.058594 168.75 57.8125 L 168.75 62.5 L 187.5 62.5 L 187.5 32.8125 C 187.5 25.058594 193.808594 18.75 201.5625 18.75 L 212.5 18.75 C 212.5 8.410156 220.910156 0 231.25 0 C 241.589844 0 250 8.410156 250 18.75 L 262.5 18.75 C 262.5 8.410156 270.910156 0 281.25 0 C 291.589844 0 300 8.410156 300 18.75 L 312.5 18.75 C 312.5 8.410156 320.910156 0 331.25 0 C 341.589844 0 350 8.410156 350 18.75 L 360.9375 18.75 C 368.691406 18.75 375 25.058594 375 32.8125 L 375 154.6875 C 375 162.441406 368.691406 168.75 360.9375 168.75 Z M 306.25 131.25 C 306.25 117.464844 295.035156 106.25 281.25 106.25 C 267.464844 106.25 256.25 117.464844 256.25 131.25 C 256.25 145.035156 267.464844 156.25 281.25 156.25 C 295.035156 156.25 306.25 145.035156 306.25 131.25 Z M 325 31.25 C 325 34.695312 327.804688 37.5 331.25 37.5 C 334.695312 37.5 337.5 34.695312 337.5 31.25 L 337.5 18.75 C 337.5 15.304688 334.695312 12.5 331.25 12.5 C 327.804688 12.5 325 15.304688 325 18.75 Z M 275 31.25 C 275 34.695312 277.804688 37.5 281.25 37.5 C 284.695312 37.5 287.5 34.695312 287.5 31.25 L 287.5 18.75 C 287.5 15.304688 284.695312 12.5 281.25 12.5 C 277.804688 12.5 275 15.304688 275 18.75 Z M 225 31.25 C 225 34.695312 227.804688 37.5 231.25 37.5 C 234.695312 37.5 237.5 34.695312 237.5 31.25 L 237.5 18.75 C 237.5 15.304688 234.695312 12.5 231.25 12.5 C 227.804688 12.5 225 15.304688 225 18.75 Z M 200 62.5 L 362.5 62.5 L 362.5 32.8125 C 362.5 31.949219 361.800781 31.25 360.9375 31.25 L 350 31.25 C 350 41.589844 341.589844 50 331.25 50 C 320.910156 50 312.5 41.589844 312.5 31.25 L 300 31.25 C 300 41.589844 291.589844 50 281.25 50 C 270.910156 50 262.5 41.589844 262.5 31.25 L 250 31.25 C 250 41.589844 241.589844 50 231.25 50 C 220.910156 50 212.5 41.589844 212.5 31.25 L 201.5625 31.25 C 200.699219 31.25 200 31.949219 200 32.8125 Z M 87.5 43.75 L 137.5 43.75 L 137.5 32.8125 C 137.5 31.949219 136.800781 31.25 135.9375 31.25 L 89.0625 31.25 C 88.199219 31.25 87.5 31.949219 87.5 32.8125 Z M 68.75 79.6875 C 68.75 80.550781 69.449219 81.25 70.3125 81.25 L 154.6875 81.25 C 155.550781 81.25 156.25 80.550781 156.25 79.6875 L 156.25 57.8125 C 156.25 56.949219 155.550781 56.25 154.6875 56.25 L 70.3125 56.25 C 69.449219 56.25 68.75 56.949219 68.75 57.8125 Z M 143.75 306.25 C 143.75 289.019531 129.730469 275 112.5 275 C 95.269531 275 81.25 289.019531 81.25 306.25 C 81.25 323.480469 95.269531 337.5 112.5 337.5 C 129.730469 337.5 143.75 323.480469 143.75 306.25 Z M 206.296875 337.5 C 194.5 321.820312 187.5 302.339844 187.5 281.25 C 187.5 270.296875 189.394531 259.78125 192.863281 250 L 93.75 250 C 90.296875 250 87.5 247.203125 87.5 243.75 C 87.5 240.296875 90.296875 237.5 93.75 237.5 L 193.75 237.5 C 195.222656 237.5 196.574219 238.011719 197.644531 238.867188 C 201.601562 231.085938 206.621094 223.929688 212.5 217.585938 L 212.5 168.75 L 201.5625 168.75 C 193.808594 168.75 187.5 162.441406 187.5 154.6875 L 187.5 150 L 93.75 150 C 90.296875 150 87.5 147.203125 87.5 143.75 C 87.5 140.296875 90.296875 137.5 93.75 137.5 L 187.5 137.5 L 187.5 75 L 168.75 75 L 168.75 79.6875 C 168.75 87.441406 162.441406 93.75 154.6875 93.75 L 70.3125 93.75 C 62.558594 93.75 56.25 87.441406 56.25 79.6875 L 56.25 75 L 14.0625 75 C 13.199219 75 12.5 75.699219 12.5 76.5625 L 12.5 335.9375 C 12.5 336.800781 13.199219 337.5 14.0625 337.5 L 81.921875 337.5 C 73.800781 329.554688 68.75 318.484375 68.75 306.25 C 68.75 282.125 88.375 262.5 112.5 262.5 C 136.625 262.5 156.25 282.125 156.25 306.25 C 156.25 318.484375 151.199219 329.554688 143.078125 337.5 Z M 200 281.25 C 200 326.050781 236.449219 362.5 281.25 362.5 C 326.050781 362.5 362.5 326.050781 362.5 281.25 C 362.5 236.449219 326.050781 200 281.25 200 C 236.449219 200 200 236.449219 200 281.25 Z M 253.328125 156.25 C 247.378906 149.609375 243.75 140.847656 243.75 131.25 C 243.75 110.574219 260.570312 93.75 281.25 93.75 C 301.929688 93.75 318.75 110.574219 318.75 131.25 C 318.75 140.847656 315.121094 149.609375 309.171875 156.25 L 360.9375 156.25 C 361.800781 156.25 362.5 155.550781 362.5 154.6875 L 362.5 75 L 200 75 L 200 154.6875 C 200 155.550781 200.699219 156.25 201.5625 156.25 Z M 298.167969 120.582031 C 295.726562 118.140625 291.773438 118.140625 289.332031 120.582031 L 275 134.910156 L 273.167969 133.082031 C 270.726562 130.640625 266.773438 130.640625 264.332031 133.082031 C 261.890625 135.523438 261.890625 139.480469 264.332031 141.917969 L 270.582031 148.167969 C 271.800781 149.390625 273.398438 150 275 150 C 276.601562 150 278.199219 149.390625 279.417969 148.167969 L 298.167969 129.417969 C 300.609375 126.980469 300.609375 123.019531 298.167969 120.582031 Z M 343.75 81.25 L 331.25 81.25 C 327.796875 81.25 325 84.046875 325 87.5 C 325 90.953125 327.796875 93.75 331.25 93.75 L 343.75 93.75 C 347.203125 93.75 350 90.953125 350 87.5 C 350 84.046875 347.203125 81.25 343.75 81.25 Z M 343.75 106.25 L 331.25 106.25 C 327.796875 106.25 325 109.046875 325 112.5 C 325 115.953125 327.796875 118.75 331.25 118.75 L 343.75 118.75 C 347.203125 118.75 350 115.953125 350 112.5 C 350 109.046875 347.203125 106.25 343.75 106.25 Z M 343.75 131.25 L 331.25 131.25 C 327.796875 131.25 325 134.046875 325 137.5 C 325 140.953125 327.796875 143.75 331.25 143.75 L 343.75 143.75 C 347.203125 143.75 350 140.953125 350 137.5 C 350 134.046875 347.203125 131.25 343.75 131.25 Z M 231.25 81.25 L 218.75 81.25 C 215.296875 81.25 212.5 84.046875 212.5 87.5 C 212.5 90.953125 215.296875 93.75 218.75 93.75 L 231.25 93.75 C 234.703125 93.75 237.5 90.953125 237.5 87.5 C 237.5 84.046875 234.703125 81.25 231.25 81.25 Z M 231.25 106.25 L 218.75 106.25 C 215.296875 106.25 212.5 109.046875 212.5 112.5 C 212.5 115.953125 215.296875 118.75 218.75 118.75 L 231.25 118.75 C 234.703125 118.75 237.5 115.953125 237.5 112.5 C 237.5 109.046875 234.703125 106.25 231.25 106.25 Z M 231.25 131.25 L 218.75 131.25 C 215.296875 131.25 212.5 134.046875 212.5 137.5 C 212.5 140.953125 215.296875 143.75 218.75 143.75 L 231.25 143.75 C 234.703125 143.75 237.5 140.953125 237.5 137.5 C 237.5 134.046875 234.703125 131.25 231.25 131.25 Z M 268.75 81.25 L 256.25 81.25 C 252.796875 81.25 250 84.046875 250 87.5 C 250 90.953125 252.796875 93.75 256.25 93.75 L 268.75 93.75 C 272.203125 93.75 275 90.953125 275 87.5 C 275 84.046875 272.203125 81.25 268.75 81.25 Z M 306.25 81.25 L 293.75 81.25 C 290.296875 81.25 287.5 84.046875 287.5 87.5 C 287.5 90.953125 290.296875 93.75 293.75 93.75 L 306.25 93.75 C 309.703125 93.75 312.5 90.953125 312.5 87.5 C 312.5 84.046875 309.703125 81.25 306.25 81.25 Z M 212.5 281.25 C 212.5 243.339844 243.339844 212.5 281.25 212.5 C 319.160156 212.5 350 243.339844 350 281.25 C 350 319.160156 319.160156 350 281.25 350 C 243.339844 350 212.5 319.160156 212.5 281.25 Z M 225 281.25 C 225 312.265625 250.234375 337.5 281.25 337.5 C 312.265625 337.5 337.5 312.265625 337.5 281.25 C 337.5 250.234375 312.265625 225 281.25 225 C 250.234375 225 225 250.234375 225 281.25 Z M 276.832031 285.667969 C 278.050781 286.890625 279.648438 287.5 281.25 287.5 C 282.851562 287.5 284.449219 286.890625 285.667969 285.667969 L 310.667969 260.667969 C 313.109375 258.230469 313.109375 254.273438 310.667969 251.832031 C 308.226562 249.390625 304.273438 249.390625 301.832031 251.832031 L 281.25 272.410156 L 273.167969 264.332031 C 270.726562 261.890625 266.773438 261.890625 264.332031 264.332031 C 261.890625 266.773438 261.890625 270.730469 264.332031 273.167969 Z M 281.25 256.25 C 284.703125 256.25 287.5 253.453125 287.5 250 L 287.5 237.5 C 287.5 234.046875 284.703125 231.25 281.25 231.25 C 277.796875 231.25 275 234.046875 275 237.5 L 275 250 C 275 253.453125 277.796875 256.25 281.25 256.25 Z M 237.5 287.5 L 250 287.5 C 253.453125 287.5 256.25 284.703125 256.25 281.25 C 256.25 277.796875 253.453125 275 250 275 L 237.5 275 C 234.046875 275 231.25 277.796875 231.25 281.25 C 231.25 284.703125 234.046875 287.5 237.5 287.5 Z M 306.25 281.25 C 306.25 284.703125 309.046875 287.5 312.5 287.5 L 325 287.5 C 328.453125 287.5 331.25 284.703125 331.25 281.25 C 331.25 277.796875 328.453125 275 325 275 L 312.5 275 C 309.046875 275 306.25 277.796875 306.25 281.25 Z M 281.25 306.25 C 277.796875 306.25 275 309.046875 275 312.5 L 275 325 C 275 328.453125 277.796875 331.25 281.25 331.25 C 284.703125 331.25 287.5 328.453125 287.5 325 L 287.5 312.5 C 287.5 309.046875 284.703125 306.25 281.25 306.25 Z M 135.667969 289.332031 C 133.226562 286.890625 129.273438 286.890625 126.832031 289.332031 L 106.25 309.910156 L 98.167969 301.832031 C 95.726562 299.390625 91.773438 299.390625 89.332031 301.832031 C 86.890625 304.273438 86.890625 308.230469 89.332031 310.667969 L 101.832031 323.167969 C 103.050781 324.390625 104.648438 325 106.25 325 C 107.851562 325 109.449219 324.390625 110.667969 323.167969 L 135.667969 298.167969 C 138.109375 295.730469 138.109375 291.769531 135.667969 289.332031 Z M 135.667969 289.332031 " clip-rule="nonzero"/></clipPath><linearGradient x1="21.045494" gradientTransform="matrix(0.78125, 0, 0, 0.78125, -12.499994, -12.5)" y1="501.045507" x2="501.045506" gradientUnits="userSpaceOnUse" y2="21.045495" id="da36c42d22"><stop stop-opacity="1" stop-color="rgb(36.898804%, 73.699951%, 89.7995%)" offset="0"/><stop stop-opacity="1" stop-color="rgb(36.898804%, 73.699951%, 89.7995%)" offset="0.03125"/><stop stop-opacity="1" stop-color="rgb(36.898804%, 73.699951%, 89.7995%)" offset="0.0390625"/><stop stop-opacity="1" stop-color="rgb(38.531494%, 72.485352%, 89.7995%)" offset="0.0429688"/><stop stop-opacity="1" stop-color="rgb(40.16571%, 71.270752%, 89.801025%)" offset="0.046875"/><stop stop-opacity="1" stop-color="rgb(40.422058%, 71.072388%, 89.804077%)" offset="0.0507813"/><stop stop-opacity="1" stop-color="rgb(40.678406%, 70.874023%, 89.808655%)" offset="0.0546875"/><stop stop-opacity="1" stop-color="rgb(40.934753%, 70.674133%, 89.811707%)" offset="0.0585938"/><stop stop-opacity="1" stop-color="rgb(41.191101%, 70.475769%, 89.814758%)" offset="0.0625"/><stop stop-opacity="1" stop-color="rgb(41.447449%, 70.277405%, 89.81781%)" offset="0.0664062"/><stop stop-opacity="1" stop-color="rgb(41.705322%, 70.079041%, 89.820862%)" offset="0.0703125"/><stop stop-opacity="1" stop-color="rgb(41.96167%, 69.880676%, 89.823914%)" offset="0.0742188"/><stop stop-opacity="1" stop-color="rgb(42.218018%, 69.682312%, 89.826965%)" offset="0.078125"/><stop stop-opacity="1" stop-color="rgb(42.474365%, 69.483948%, 89.830017%)" offset="0.0820313"/><stop stop-opacity="1" stop-color="rgb(42.730713%, 69.285583%, 89.834595%)" offset="0.0859375"/><stop stop-opacity="1" stop-color="rgb(42.987061%, 69.087219%, 89.837646%)" offset="0.0898438"/><stop stop-opacity="1" stop-color="rgb(43.243408%, 68.888855%, 89.840698%)" offset="0.09375"/><stop stop-opacity="1" stop-color="rgb(43.499756%, 68.690491%, 89.84375%)" offset="0.0976563"/><stop stop-opacity="1" stop-color="rgb(43.756104%, 68.492126%, 89.846802%)" offset="0.101563"/><stop stop-opacity="1" stop-color="rgb(44.012451%, 68.292236%, 89.849854%)" offset="0.105469"/><stop stop-opacity="1" stop-color="rgb(44.268799%, 68.093872%, 89.852905%)" offset="0.109375"/><stop stop-opacity="1" stop-color="rgb(44.525146%, 67.895508%, 89.855957%)" offset="0.113281"/><stop stop-opacity="1" stop-color="rgb(44.78302%, 67.697144%, 89.860535%)" offset="0.117188"/><stop stop-opacity="1" stop-color="rgb(45.039368%, 67.498779%, 89.863586%)" offset="0.121094"/><stop stop-opacity="1" stop-color="rgb(45.295715%, 67.300415%, 89.866638%)" offset="0.125"/><stop stop-opacity="1" stop-color="rgb(45.552063%, 67.102051%, 89.86969%)" offset="0.128906"/><stop stop-opacity="1" stop-color="rgb(45.808411%, 66.903687%, 89.872742%)" offset="0.132813"/><stop stop-opacity="1" stop-color="rgb(46.064758%, 66.705322%, 89.875793%)" offset="0.136719"/><stop stop-opacity="1" stop-color="rgb(46.321106%, 66.506958%, 89.880371%)" offset="0.140625"/><stop stop-opacity="1" stop-color="rgb(46.577454%, 66.308594%, 89.883423%)" offset="0.144531"/><stop stop-opacity="1" stop-color="rgb(46.833801%, 66.110229%, 89.886475%)" offset="0.148438"/><stop stop-opacity="1" stop-color="rgb(47.090149%, 65.910339%, 89.889526%)" offset="0.152344"/><stop stop-opacity="1" stop-color="rgb(47.348022%, 65.711975%, 89.892578%)" offset="0.15625"/><stop stop-opacity="1" stop-color="rgb(47.60437%, 65.513611%, 89.89563%)" offset="0.160156"/><stop stop-opacity="1" stop-color="rgb(47.860718%, 65.315247%, 89.898682%)" offset="0.164062"/><stop stop-opacity="1" stop-color="rgb(48.117065%, 65.116882%, 89.901733%)" offset="0.167969"/><stop stop-opacity="1" stop-color="rgb(48.373413%, 64.918518%, 89.906311%)" offset="0.171875"/><stop stop-opacity="1" stop-color="rgb(48.629761%, 64.720154%, 89.909363%)" offset="0.175781"/><stop stop-opacity="1" stop-color="rgb(48.886108%, 64.52179%, 89.912415%)" offset="0.179688"/><stop stop-opacity="1" stop-color="rgb(49.142456%, 64.323425%, 89.915466%)" offset="0.183594"/><stop stop-opacity="1" stop-color="rgb(49.398804%, 64.125061%, 89.918518%)" offset="0.1875"/><stop stop-opacity="1" stop-color="rgb(49.655151%, 63.926697%, 89.92157%)" offset="0.191406"/><stop stop-opacity="1" stop-color="rgb(49.911499%, 63.728333%, 89.926147%)" offset="0.195313"/><stop stop-opacity="1" stop-color="rgb(50.167847%, 63.528442%, 89.929199%)" offset="0.199219"/><stop stop-opacity="1" stop-color="rgb(50.42572%, 63.330078%, 89.932251%)" offset="0.203125"/><stop stop-opacity="1" stop-color="rgb(50.682068%, 63.131714%, 89.935303%)" offset="0.207031"/><stop stop-opacity="1" stop-color="rgb(50.938416%, 62.93335%, 89.938354%)" offset="0.210938"/><stop stop-opacity="1" stop-color="rgb(51.194763%, 62.734985%, 89.941406%)" offset="0.214844"/><stop stop-opacity="1" stop-color="rgb(51.451111%, 62.536621%, 89.944458%)" offset="0.21875"/><stop stop-opacity="1" stop-color="rgb(51.707458%, 62.338257%, 89.94751%)" offset="0.222656"/><stop stop-opacity="1" stop-color="rgb(51.963806%, 62.139893%, 89.952087%)" offset="0.226563"/><stop stop-opacity="1" stop-color="rgb(52.220154%, 61.941528%, 89.955139%)" offset="0.230469"/><stop stop-opacity="1" stop-color="rgb(52.476501%, 61.743164%, 89.958191%)" offset="0.234375"/><stop stop-opacity="1" stop-color="rgb(52.732849%, 61.5448%, 89.961243%)" offset="0.238281"/><stop stop-opacity="1" stop-color="rgb(52.989197%, 61.346436%, 89.964294%)" offset="0.242188"/><stop stop-opacity="1" stop-color="rgb(53.245544%, 61.146545%, 89.967346%)" offset="0.246094"/><stop stop-opacity="1" stop-color="rgb(53.503418%, 60.948181%, 89.971924%)" offset="0.25"/><stop stop-opacity="1" stop-color="rgb(53.759766%, 60.749817%, 89.974976%)" offset="0.253906"/><stop stop-opacity="1" stop-color="rgb(54.016113%, 60.551453%, 89.978027%)" offset="0.257812"/><stop stop-opacity="1" stop-color="rgb(54.272461%, 60.353088%, 89.981079%)" offset="0.261719"/><stop stop-opacity="1" stop-color="rgb(54.528809%, 60.154724%, 89.984131%)" offset="0.265625"/><stop stop-opacity="1" stop-color="rgb(54.785156%, 59.95636%, 89.987183%)" offset="0.269531"/><stop stop-opacity="1" stop-color="rgb(55.041504%, 59.757996%, 89.990234%)" offset="0.273438"/><stop stop-opacity="1" stop-color="rgb(55.297852%, 59.559631%, 89.993286%)" offset="0.277344"/><stop stop-opacity="1" stop-color="rgb(55.554199%, 59.361267%, 89.997864%)" offset="0.28125"/><stop stop-opacity="1" stop-color="rgb(55.810547%, 59.162903%, 90.000916%)" offset="0.285156"/><stop stop-opacity="1" stop-color="rgb(56.06842%, 58.964539%, 90.003967%)" offset="0.289063"/><stop stop-opacity="1" stop-color="rgb(56.324768%, 58.766174%, 90.007019%)" offset="0.292969"/><stop stop-opacity="1" stop-color="rgb(56.581116%, 58.56781%, 90.010071%)" offset="0.296875"/><stop stop-opacity="1" stop-color="rgb(56.837463%, 58.36792%, 90.013123%)" offset="0.300781"/><stop stop-opacity="1" stop-color="rgb(57.093811%, 58.169556%, 90.0177%)" offset="0.304688"/><stop stop-opacity="1" stop-color="rgb(57.350159%, 57.971191%, 90.020752%)" offset="0.308594"/><stop stop-opacity="1" stop-color="rgb(57.606506%, 57.772827%, 90.023804%)" offset="0.3125"/><stop stop-opacity="1" stop-color="rgb(57.862854%, 57.574463%, 90.026855%)" offset="0.316406"/><stop stop-opacity="1" stop-color="rgb(58.119202%, 57.376099%, 90.029907%)" offset="0.320312"/><stop stop-opacity="1" stop-color="rgb(58.375549%, 57.177734%, 90.032959%)" offset="0.324219"/><stop stop-opacity="1" stop-color="rgb(58.631897%, 56.97937%, 90.036011%)" offset="0.328125"/><stop stop-opacity="1" stop-color="rgb(58.888245%, 56.781006%, 90.039062%)" offset="0.332031"/><stop stop-opacity="1" stop-color="rgb(59.146118%, 56.582642%, 90.04364%)" offset="0.335938"/><stop stop-opacity="1" stop-color="rgb(59.402466%, 56.384277%, 90.046692%)" offset="0.339844"/><stop stop-opacity="1" stop-color="rgb(59.658813%, 56.185913%, 90.049744%)" offset="0.34375"/><stop stop-opacity="1" stop-color="rgb(59.915161%, 55.986023%, 90.052795%)" offset="0.347656"/><stop stop-opacity="1" stop-color="rgb(60.171509%, 55.787659%, 90.055847%)" offset="0.351562"/><stop stop-opacity="1" stop-color="rgb(60.427856%, 55.589294%, 90.058899%)" offset="0.355469"/><stop stop-opacity="1" stop-color="rgb(60.684204%, 55.39093%, 90.063477%)" offset="0.359375"/><stop stop-opacity="1" stop-color="rgb(60.940552%, 55.192566%, 90.066528%)" offset="0.363281"/><stop stop-opacity="1" stop-color="rgb(61.196899%, 54.994202%, 90.06958%)" offset="0.367188"/><stop stop-opacity="1" stop-color="rgb(61.453247%, 54.795837%, 90.072632%)" offset="0.371094"/><stop stop-opacity="1" stop-color="rgb(61.711121%, 54.597473%, 90.075684%)" offset="0.375"/><stop stop-opacity="1" stop-color="rgb(61.967468%, 54.399109%, 90.078735%)" offset="0.378906"/><stop stop-opacity="1" stop-color="rgb(62.223816%, 54.200745%, 90.081787%)" offset="0.382812"/><stop stop-opacity="1" stop-color="rgb(62.480164%, 54.00238%, 90.084839%)" offset="0.386719"/><stop stop-opacity="1" stop-color="rgb(62.736511%, 53.804016%, 90.089417%)" offset="0.390625"/><stop stop-opacity="1" stop-color="rgb(62.992859%, 53.604126%, 90.092468%)" offset="0.394531"/><stop stop-opacity="1" stop-color="rgb(63.249207%, 53.405762%, 90.09552%)" offset="0.398438"/><stop stop-opacity="1" stop-color="rgb(63.505554%, 53.207397%, 90.098572%)" offset="0.402344"/><stop stop-opacity="1" stop-color="rgb(63.761902%, 53.009033%, 90.101624%)" offset="0.40625"/><stop stop-opacity="1" stop-color="rgb(64.01825%, 52.810669%, 90.104675%)" offset="0.410156"/><stop stop-opacity="1" stop-color="rgb(64.274597%, 52.612305%, 90.107727%)" offset="0.414062"/><stop stop-opacity="1" stop-color="rgb(64.530945%, 52.41394%, 90.110779%)" offset="0.417969"/><stop stop-opacity="1" stop-color="rgb(64.788818%, 52.215576%, 90.115356%)" offset="0.421875"/><stop stop-opacity="1" stop-color="rgb(65.045166%, 52.017212%, 90.118408%)" offset="0.425781"/><stop stop-opacity="1" stop-color="rgb(65.301514%, 51.818848%, 90.12146%)" offset="0.429688"/><stop stop-opacity="1" stop-color="rgb(65.557861%, 51.620483%, 90.124512%)" offset="0.433594"/><stop stop-opacity="1" stop-color="rgb(65.814209%, 51.422119%, 90.127563%)" offset="0.4375"/><stop stop-opacity="1" stop-color="rgb(66.070557%, 51.222229%, 90.130615%)" offset="0.441406"/><stop stop-opacity="1" stop-color="rgb(66.326904%, 51.023865%, 90.135193%)" offset="0.445312"/><stop stop-opacity="1" stop-color="rgb(66.583252%, 50.8255%, 90.138245%)" offset="0.449219"/><stop stop-opacity="1" stop-color="rgb(66.8396%, 50.627136%, 90.141296%)" offset="0.453125"/><stop stop-opacity="1" stop-color="rgb(67.095947%, 50.428772%, 90.144348%)" offset="0.457031"/><stop stop-opacity="1" stop-color="rgb(67.353821%, 50.230408%, 90.1474%)" offset="0.460937"/><stop stop-opacity="1" stop-color="rgb(67.610168%, 50.032043%, 90.150452%)" offset="0.464844"/><stop stop-opacity="1" stop-color="rgb(67.866516%, 49.833679%, 90.153503%)" offset="0.46875"/><stop stop-opacity="1" stop-color="rgb(68.122864%, 49.635315%, 90.156555%)" offset="0.472656"/><stop stop-opacity="1" stop-color="rgb(68.379211%, 49.436951%, 90.161133%)" offset="0.476562"/><stop stop-opacity="1" stop-color="rgb(68.635559%, 49.238586%, 90.164185%)" offset="0.480469"/><stop stop-opacity="1" stop-color="rgb(68.891907%, 49.040222%, 90.167236%)" offset="0.484375"/><stop stop-opacity="1" stop-color="rgb(69.148254%, 48.840332%, 90.170288%)" offset="0.488281"/><stop stop-opacity="1" stop-color="rgb(69.404602%, 48.641968%, 90.17334%)" offset="0.492188"/><stop stop-opacity="1" stop-color="rgb(69.66095%, 48.443604%, 90.176392%)" offset="0.496094"/><stop stop-opacity="1" stop-color="rgb(69.917297%, 48.245239%, 90.180969%)" offset="0.5"/><stop stop-opacity="1" stop-color="rgb(70.173645%, 48.046875%, 90.184021%)" offset="0.503906"/><stop stop-opacity="1" stop-color="rgb(70.431519%, 47.848511%, 90.187073%)" offset="0.507812"/><stop stop-opacity="1" stop-color="rgb(70.687866%, 47.650146%, 90.190125%)" offset="0.511719"/><stop stop-opacity="1" stop-color="rgb(70.944214%, 47.451782%, 90.193176%)" offset="0.515625"/><stop stop-opacity="1" stop-color="rgb(71.188354%, 47.264099%, 90.144348%)" offset="0.519531"/><stop stop-opacity="1" stop-color="rgb(71.434021%, 47.076416%, 90.09552%)" offset="0.523438"/><stop stop-opacity="1" stop-color="rgb(71.585083%, 46.975708%, 89.633179%)" offset="0.527344"/><stop stop-opacity="1" stop-color="rgb(71.737671%, 46.875%, 89.172363%)" offset="0.53125"/><stop stop-opacity="1" stop-color="rgb(71.890259%, 46.774292%, 88.710022%)" offset="0.535156"/><stop stop-opacity="1" stop-color="rgb(72.042847%, 46.673584%, 88.247681%)" offset="0.539063"/><stop stop-opacity="1" stop-color="rgb(72.193909%, 46.57135%, 87.785339%)" offset="0.542969"/><stop stop-opacity="1" stop-color="rgb(72.346497%, 46.470642%, 87.324524%)" offset="0.546875"/><stop stop-opacity="1" stop-color="rgb(72.499084%, 46.369934%, 86.862183%)" offset="0.550781"/><stop stop-opacity="1" stop-color="rgb(72.651672%, 46.269226%, 86.399841%)" offset="0.554688"/><stop stop-opacity="1" stop-color="rgb(72.802734%, 46.168518%, 85.9375%)" offset="0.558594"/><stop stop-opacity="1" stop-color="rgb(72.955322%, 46.06781%, 85.476685%)" offset="0.5625"/><stop stop-opacity="1" stop-color="rgb(73.10791%, 45.967102%, 85.014343%)" offset="0.566406"/><stop stop-opacity="1" stop-color="rgb(73.260498%, 45.866394%, 84.552002%)" offset="0.570313"/><stop stop-opacity="1" stop-color="rgb(73.41156%, 45.765686%, 84.089661%)" offset="0.574219"/><stop stop-opacity="1" stop-color="rgb(73.564148%, 45.664978%, 83.628845%)" offset="0.578125"/><stop stop-opacity="1" stop-color="rgb(73.716736%, 45.562744%, 83.166504%)" offset="0.582031"/><stop stop-opacity="1" stop-color="rgb(73.869324%, 45.462036%, 82.705688%)" offset="0.585938"/><stop stop-opacity="1" stop-color="rgb(74.020386%, 45.361328%, 82.243347%)" offset="0.589844"/><stop stop-opacity="1" stop-color="rgb(74.172974%, 45.26062%, 81.781006%)" offset="0.59375"/><stop stop-opacity="1" stop-color="rgb(74.325562%, 45.159912%, 81.318665%)" offset="0.597656"/><stop stop-opacity="1" stop-color="rgb(74.478149%, 45.059204%, 80.857849%)" offset="0.601563"/><stop stop-opacity="1" stop-color="rgb(74.629211%, 44.958496%, 80.395508%)" offset="0.605469"/><stop stop-opacity="1" stop-color="rgb(74.781799%, 44.857788%, 79.933167%)" offset="0.609375"/><stop stop-opacity="1" stop-color="rgb(74.934387%, 44.755554%, 79.470825%)" offset="0.613281"/><stop stop-opacity="1" stop-color="rgb(75.086975%, 44.654846%, 79.01001%)" offset="0.617188"/><stop stop-opacity="1" stop-color="rgb(75.238037%, 44.554138%, 78.547668%)" offset="0.621094"/><stop stop-opacity="1" stop-color="rgb(75.390625%, 44.45343%, 78.085327%)" offset="0.625"/><stop stop-opacity="1" stop-color="rgb(75.541687%, 44.352722%, 77.622986%)" offset="0.628906"/><stop stop-opacity="1" stop-color="rgb(75.694275%, 44.252014%, 77.16217%)" offset="0.632813"/><stop stop-opacity="1" stop-color="rgb(75.846863%, 44.151306%, 76.699829%)" offset="0.636719"/><stop stop-opacity="1" stop-color="rgb(75.999451%, 44.050598%, 76.237488%)" offset="0.640625"/><stop stop-opacity="1" stop-color="rgb(76.150513%, 43.94989%, 75.775146%)" offset="0.644531"/><stop stop-opacity="1" stop-color="rgb(76.303101%, 43.849182%, 75.314331%)" offset="0.648438"/><stop stop-opacity="1" stop-color="rgb(76.455688%, 43.746948%, 74.85199%)" offset="0.652344"/><stop stop-opacity="1" stop-color="rgb(76.608276%, 43.64624%, 74.391174%)" offset="0.65625"/><stop stop-opacity="1" stop-color="rgb(76.759338%, 43.545532%, 73.928833%)" offset="0.660156"/><stop stop-opacity="1" stop-color="rgb(76.911926%, 43.444824%, 73.466492%)" offset="0.664063"/><stop stop-opacity="1" stop-color="rgb(77.064514%, 43.344116%, 73.00415%)" offset="0.667969"/><stop stop-opacity="1" stop-color="rgb(77.217102%, 43.243408%, 72.543335%)" offset="0.671875"/><stop stop-opacity="1" stop-color="rgb(77.368164%, 43.1427%, 72.080994%)" offset="0.675781"/><stop stop-opacity="1" stop-color="rgb(77.520752%, 43.041992%, 71.618652%)" offset="0.679688"/><stop stop-opacity="1" stop-color="rgb(77.67334%, 42.939758%, 71.156311%)" offset="0.683594"/><stop stop-opacity="1" stop-color="rgb(77.825928%, 42.83905%, 70.695496%)" offset="0.6875"/><stop stop-opacity="1" stop-color="rgb(77.97699%, 42.738342%, 70.233154%)" offset="0.691406"/><stop stop-opacity="1" stop-color="rgb(78.129578%, 42.637634%, 69.770813%)" offset="0.695313"/><stop stop-opacity="1" stop-color="rgb(78.282166%, 42.536926%, 69.308472%)" offset="0.699219"/><stop stop-opacity="1" stop-color="rgb(78.434753%, 42.436218%, 68.847656%)" offset="0.703125"/><stop stop-opacity="1" stop-color="rgb(78.585815%, 42.33551%, 68.385315%)" offset="0.707031"/><stop stop-opacity="1" stop-color="rgb(78.738403%, 42.234802%, 67.9245%)" offset="0.710938"/><stop stop-opacity="1" stop-color="rgb(78.890991%, 42.134094%, 67.462158%)" offset="0.714844"/><stop stop-opacity="1" stop-color="rgb(79.043579%, 42.033386%, 66.999817%)" offset="0.71875"/><stop stop-opacity="1" stop-color="rgb(79.194641%, 41.931152%, 66.537476%)" offset="0.722656"/><stop stop-opacity="1" stop-color="rgb(79.347229%, 41.830444%, 66.07666%)" offset="0.726563"/><stop stop-opacity="1" stop-color="rgb(79.499817%, 41.729736%, 65.614319%)" offset="0.730469"/><stop stop-opacity="1" stop-color="rgb(79.652405%, 41.629028%, 65.151978%)" offset="0.734375"/><stop stop-opacity="1" stop-color="rgb(79.803467%, 41.52832%, 64.689636%)" offset="0.738281"/><stop stop-opacity="1" stop-color="rgb(79.956055%, 41.427612%, 64.228821%)" offset="0.742188"/><stop stop-opacity="1" stop-color="rgb(80.108643%, 41.326904%, 63.766479%)" offset="0.746094"/><stop stop-opacity="1" stop-color="rgb(80.26123%, 41.226196%, 63.304138%)" offset="0.75"/><stop stop-opacity="1" stop-color="rgb(80.412292%, 41.123962%, 62.841797%)" offset="0.753906"/><stop stop-opacity="1" stop-color="rgb(80.56488%, 41.023254%, 62.380981%)" offset="0.757812"/><stop stop-opacity="1" stop-color="rgb(80.717468%, 40.922546%, 61.91864%)" offset="0.761719"/><stop stop-opacity="1" stop-color="rgb(80.870056%, 40.821838%, 61.457825%)" offset="0.765625"/><stop stop-opacity="1" stop-color="rgb(81.021118%, 40.72113%, 60.995483%)" offset="0.769531"/><stop stop-opacity="1" stop-color="rgb(81.173706%, 40.620422%, 60.533142%)" offset="0.773438"/><stop stop-opacity="1" stop-color="rgb(81.326294%, 40.519714%, 60.070801%)" offset="0.777344"/><stop stop-opacity="1" stop-color="rgb(81.478882%, 40.419006%, 59.609985%)" offset="0.78125"/><stop stop-opacity="1" stop-color="rgb(81.629944%, 40.318298%, 59.147644%)" offset="0.785156"/><stop stop-opacity="1" stop-color="rgb(81.782532%, 40.21759%, 58.685303%)" offset="0.789063"/><stop stop-opacity="1" stop-color="rgb(81.93512%, 40.115356%, 58.222961%)" offset="0.792969"/><stop stop-opacity="1" stop-color="rgb(82.087708%, 40.014648%, 57.762146%)" offset="0.796875"/><stop stop-opacity="1" stop-color="rgb(82.23877%, 39.91394%, 57.299805%)" offset="0.800781"/><stop stop-opacity="1" stop-color="rgb(82.391357%, 39.813232%, 56.837463%)" offset="0.804688"/><stop stop-opacity="1" stop-color="rgb(82.543945%, 39.712524%, 56.375122%)" offset="0.808594"/><stop stop-opacity="1" stop-color="rgb(82.696533%, 39.611816%, 55.914307%)" offset="0.8125"/><stop stop-opacity="1" stop-color="rgb(82.847595%, 39.511108%, 55.451965%)" offset="0.816406"/><stop stop-opacity="1" stop-color="rgb(83.000183%, 39.4104%, 54.99115%)" offset="0.820313"/><stop stop-opacity="1" stop-color="rgb(83.152771%, 39.308167%, 54.528809%)" offset="0.824219"/><stop stop-opacity="1" stop-color="rgb(83.305359%, 39.207458%, 54.066467%)" offset="0.828125"/><stop stop-opacity="1" stop-color="rgb(83.456421%, 39.10675%, 53.604126%)" offset="0.832031"/><stop stop-opacity="1" stop-color="rgb(83.609009%, 39.006042%, 53.143311%)" offset="0.835938"/><stop stop-opacity="1" stop-color="rgb(83.761597%, 38.905334%, 52.680969%)" offset="0.839844"/><stop stop-opacity="1" stop-color="rgb(83.914185%, 38.804626%, 52.218628%)" offset="0.84375"/><stop stop-opacity="1" stop-color="rgb(84.065247%, 38.703918%, 51.756287%)" offset="0.847656"/><stop stop-opacity="1" stop-color="rgb(84.217834%, 38.60321%, 51.295471%)" offset="0.851563"/><stop stop-opacity="1" stop-color="rgb(84.370422%, 38.502502%, 50.83313%)" offset="0.855469"/><stop stop-opacity="1" stop-color="rgb(84.52301%, 38.401794%, 50.370789%)" offset="0.859375"/><stop stop-opacity="1" stop-color="rgb(84.674072%, 38.299561%, 49.908447%)" offset="0.863281"/><stop stop-opacity="1" stop-color="rgb(84.82666%, 38.198853%, 49.447632%)" offset="0.867188"/><stop stop-opacity="1" stop-color="rgb(84.979248%, 38.098145%, 48.985291%)" offset="0.871094"/><stop stop-opacity="1" stop-color="rgb(85.131836%, 37.997437%, 48.524475%)" offset="0.875"/><stop stop-opacity="1" stop-color="rgb(85.282898%, 37.896729%, 48.062134%)" offset="0.878906"/><stop stop-opacity="1" stop-color="rgb(85.435486%, 37.796021%, 47.599792%)" offset="0.882813"/><stop stop-opacity="1" stop-color="rgb(85.588074%, 37.695312%, 47.137451%)" offset="0.886719"/><stop stop-opacity="1" stop-color="rgb(85.740662%, 37.594604%, 46.676636%)" offset="0.890625"/><stop stop-opacity="1" stop-color="rgb(85.891724%, 37.493896%, 46.214294%)" offset="0.894531"/><stop stop-opacity="1" stop-color="rgb(86.044312%, 37.393188%, 45.751953%)" offset="0.898438"/><stop stop-opacity="1" stop-color="rgb(86.196899%, 37.290955%, 45.289612%)" offset="0.902344"/><stop stop-opacity="1" stop-color="rgb(86.349487%, 37.190247%, 44.828796%)" offset="0.90625"/><stop stop-opacity="1" stop-color="rgb(86.500549%, 37.089539%, 44.366455%)" offset="0.910156"/><stop stop-opacity="1" stop-color="rgb(86.653137%, 36.988831%, 43.904114%)" offset="0.914063"/><stop stop-opacity="1" stop-color="rgb(86.805725%, 36.888123%, 43.441772%)" offset="0.917969"/><stop stop-opacity="1" stop-color="rgb(86.958313%, 36.787415%, 42.980957%)" offset="0.921875"/><stop stop-opacity="1" stop-color="rgb(87.109375%, 36.686707%, 42.518616%)" offset="0.925781"/><stop stop-opacity="1" stop-color="rgb(87.261963%, 36.585999%, 42.056274%)" offset="0.929688"/><stop stop-opacity="1" stop-color="rgb(87.414551%, 36.483765%, 41.593933%)" offset="0.933594"/><stop stop-opacity="1" stop-color="rgb(87.567139%, 36.383057%, 41.133118%)" offset="0.9375"/><stop stop-opacity="1" stop-color="rgb(87.718201%, 36.282349%, 40.670776%)" offset="0.941406"/><stop stop-opacity="1" stop-color="rgb(87.870789%, 36.181641%, 40.209961%)" offset="0.945313"/><stop stop-opacity="1" stop-color="rgb(88.023376%, 36.080933%, 39.74762%)" offset="0.949219"/><stop stop-opacity="1" stop-color="rgb(88.175964%, 35.980225%, 39.285278%)" offset="0.953125"/><stop stop-opacity="1" stop-color="rgb(88.327026%, 35.879517%, 38.822937%)" offset="0.957031"/><stop stop-opacity="1" stop-color="rgb(88.479614%, 35.778809%, 38.362122%)" offset="0.960938"/><stop stop-opacity="1" stop-color="rgb(88.539124%, 35.739136%, 38.180542%)" offset="0.96875"/><stop stop-opacity="1" stop-color="rgb(88.598633%, 35.699463%, 37.998962%)" offset="1"/></linearGradient></defs><g clip-path="url(#d44c172e29)"><rect x="-37.5" fill="url(#da36c42d22)" width="450" y="-37.499999" height="449.999989"/></g></svg>